<svg width="53" height="52" viewBox="0 0 53 52" fill="none" xmlns="http://www.w3.org/2000/svg">
<path d="M9.61338 29.0208C8.87783 28.3436 7.68098 28.3436 6.94542 29.0208C6.67115 29.2133 6.48413 29.5055 6.39063 29.7976C6.39063 29.8972 6.29714 30.0898 6.20363 30.1827C6.11013 30.3752 6.11015 30.5678 6.11015 30.767C6.11015 31.4442 6.29091 32.0285 6.75219 32.5131L14.3945 39.8763C14.6687 40.0688 14.6687 40.4605 14.3945 40.746C14.2075 41.0382 13.8397 41.0382 13.5654 40.746L5.92312 33.3763C5.18756 32.699 4.81979 31.7297 4.91329 30.7603C4.91329 30.3752 5.00679 29.9835 5.10029 29.5984V15.649C5.10029 14.2945 4.0905 13.2256 2.80016 13.2256C1.50983 13.2256 0.5 14.2945 0.5 15.649V35.5208L13.4781 48.2154H19.6431C19.9173 48.2154 20.1979 48.5075 20.1979 48.7997C20.1979 49.0918 19.9236 49.3839 19.6431 49.3839H13.9394L14.4007 51.9999H24.2496V41.3303L9.61338 29.0208Z" fill="#0348D9"/>
<path d="M27.5659 16.904C27.3789 16.8044 27.1981 16.7114 26.9238 16.6118V18.0659C27.5659 18.0659 27.8464 17.8733 27.8464 17.3886C27.8402 17.0965 27.7467 17.0035 27.5659 16.904Z" fill="#0348D9"/>
<path d="M25.54 13.4184C25.54 13.611 25.6335 13.8035 25.7208 13.9031C25.8143 14.0027 26.0886 14.0956 26.3629 14.1952V12.6416C25.8143 12.7412 25.54 13.0267 25.54 13.4184Z" fill="#0348D9"/>
<path d="M4.60791 1.71297L6.23485 0L7.86182 1.71297L6.23485 3.42595L4.60791 1.71297Z" fill="#0348D9"/>
<path d="M43.7292 6.55965L45.3562 4.84668L46.9831 6.55965L45.3562 8.27263L43.7292 6.55965Z" fill="#0348D9"/>
<path d="M26.5497 7.01758C22.1302 7.01758 18.4524 10.7954 18.4524 15.4497C18.4524 20.1039 22.0429 23.9813 26.5497 23.9813C31.0628 23.9813 34.6533 20.2035 34.6533 15.4497C34.6533 10.8021 30.9693 7.01758 26.5497 7.01758ZM29.6789 18.3577C29.4919 18.6499 29.3111 18.942 29.0369 19.1345C28.7626 19.3271 28.4821 19.5196 28.1143 19.6192C27.7465 19.7188 27.3788 19.8118 27.011 19.8118V21.2658H26.1819V19.8118C25.6271 19.7122 25.0786 19.6192 24.6173 19.4267C24.0626 19.2341 23.6075 19.0416 23.2335 18.7495L24.0625 17.0033C24.0625 17.0033 24.1561 17.1029 24.3368 17.1958C24.4303 17.2954 24.6111 17.3884 24.8916 17.488C25.0786 17.5876 25.3529 17.6805 25.6272 17.7801C25.9014 17.8797 26.1819 17.9726 26.4562 17.9726V16.3261L25.9014 16.1335C25.5337 16.0339 25.1659 15.8414 24.8916 15.7484C24.6173 15.6488 24.3368 15.4563 24.156 15.2638C23.969 15.0712 23.8818 14.8787 23.7883 14.5865C23.6948 14.2944 23.6948 14.1019 23.6948 13.7168C23.6948 13.3317 23.7883 12.94 23.8756 12.5549C24.0626 12.2627 24.2433 11.9706 24.4303 11.6851C24.7046 11.4926 24.9851 11.3 25.2594 11.1008C25.6271 11.0012 25.9014 10.9083 26.2692 10.8087V9.5472H27.0047V11.0012C27.466 11.1008 28.0146 11.1938 28.3886 11.3863C28.8499 11.5789 29.2176 11.7714 29.5854 11.9706L28.7564 13.6172C28.7564 13.6172 28.6629 13.5176 28.5694 13.4246C28.4759 13.325 28.2951 13.2321 28.1081 13.2321C27.9211 13.1325 27.7403 13.0395 27.5533 12.94C27.3663 12.8404 27.092 12.8404 26.9113 12.7474V14.394L27.279 14.4936C27.6468 14.5932 28.0146 14.6861 28.3824 14.8787C28.6566 14.9783 28.9372 15.1708 29.2114 15.3633C29.3984 15.5559 29.5792 15.848 29.7662 16.1402C29.8597 16.4323 29.9532 16.8174 29.9532 17.2091C29.8659 17.5809 29.7724 18.0656 29.6789 18.3577Z" fill="#0348D9"/>
<path d="M40.3571 15.45C40.3571 7.40303 34.1922 0.909668 26.5499 0.909668C18.9076 0.909668 12.7427 7.40303 12.7427 15.45C12.7427 23.497 18.9076 29.9904 26.5499 29.9904C34.1922 29.9904 40.3571 23.497 40.3571 15.45ZM26.5499 25.1436C21.4883 25.1436 17.343 20.7815 17.343 15.45C17.343 10.1186 21.4883 5.75646 26.5499 5.75646C31.6115 5.75646 35.7568 10.1186 35.7568 15.45C35.7568 20.7815 31.6177 25.1436 26.5499 25.1436Z" fill="#0348D9"/>
<path d="M50.2058 13.2256C48.9155 13.2256 47.9057 14.2945 47.9057 15.649V29.4125C47.9992 29.7976 48.0927 30.1893 48.0927 30.5744C48.0927 31.5438 47.7249 32.5131 47.0829 33.1904L39.4406 40.5535C39.1663 40.746 38.8858 40.746 38.6115 40.5535C38.4245 40.2614 38.4245 39.9692 38.6115 39.6837L46.2538 32.3206C46.7151 31.8359 46.9894 31.2517 46.8959 30.5744C46.8959 30.3819 46.8958 30.1893 46.8023 29.9902C46.7088 29.8906 46.7088 29.7976 46.6153 29.6051C46.5218 29.3129 46.2476 29.1204 46.0606 28.8283C45.325 28.151 44.1282 28.151 43.3926 28.8283L28.8499 41.3303V51.9932H38.6053L39.0666 49.3773H33.3567C33.0824 49.3773 32.8019 49.0852 32.8019 48.793C32.8019 48.5009 33.0762 48.2088 33.3567 48.2088H39.5216L52.4998 35.5142V15.649C52.5122 14.2879 51.4962 13.2256 50.2058 13.2256Z" fill="#0348D9"/>
</svg>
