<svg width="53" height="52" viewBox="0 0 53 52" fill="none" xmlns="http://www.w3.org/2000/svg">
<path d="M35.5381 17.1113C35.5381 12.8562 31.8789 9.45605 27.3117 9.45605C22.7445 9.45605 19.0852 12.8627 19.0852 17.1113C19.0852 21.3664 22.7445 24.7666 27.3117 24.7666C31.8789 24.7731 35.5381 21.3664 35.5381 17.1113ZM25.2757 20.8029C24.7667 20.6151 24.2577 20.4273 23.8519 20.1424L24.7667 18.5361C24.7667 18.5361 24.8699 18.6333 25.0693 18.724C25.1725 18.8211 25.372 18.9118 25.5783 19.009C25.7778 19.1061 26.0873 19.1967 26.2868 19.2939C26.5895 19.391 26.7958 19.4817 27.0984 19.4817V17.9662L26.4863 17.7784C26.0804 17.6812 25.7778 17.5906 25.4683 17.4027C25.1656 17.3056 24.9593 17.1178 24.7598 16.93C24.5535 16.7422 24.4572 16.5543 24.354 16.36C24.2508 16.1722 24.2508 15.8873 24.2508 15.6023C24.2508 15.2266 24.354 14.8445 24.4572 14.5595C24.5603 14.2746 24.7598 13.9896 25.0693 13.8018C25.2688 13.614 25.5783 13.4262 25.9842 13.329C26.2868 13.2319 26.6926 13.1412 27.0984 13.044V11.9107H27.9101V13.044C28.4191 13.044 28.9281 13.2319 29.3339 13.329C29.8429 13.5168 30.1455 13.7047 30.5513 13.899L29.6365 15.4144C29.6365 15.4144 29.5333 15.3173 29.4302 15.2266C29.327 15.1295 29.1275 15.1295 29.0244 15.0388C28.9212 14.9482 28.6185 14.851 28.4122 14.851C28.2058 14.7538 28.0064 14.7539 27.7037 14.6632V16.1787L28.1095 16.2758C28.5154 16.373 28.9212 16.4637 29.2238 16.6515C29.5265 16.7486 29.836 16.9364 30.0355 17.1243C30.2418 17.3121 30.4413 17.4999 30.5445 17.7849C30.6477 18.0698 30.7439 18.3548 30.7439 18.7304C30.7439 19.2032 30.6408 19.4882 30.5445 19.7732C30.3381 20.0582 30.1387 20.3431 29.9323 20.5309C29.6297 20.7187 29.3201 20.9066 29.0175 21.0037C28.7148 21.1009 28.309 21.1915 27.9032 21.1915V22.5128H27.0916V21.1915C26.3969 20.9908 25.8878 20.8936 25.2757 20.8029Z" fill="#0348D9"/>
<path d="M29.6503 25.7181C28.8387 25.9059 28.027 26.0031 27.2085 26.0031C26.2937 26.0031 25.3789 25.9059 24.5673 25.6274V37.8228H29.6434V25.7181H29.6503Z" fill="#0348D9"/>
<path d="M27.1053 14.6562C26.4931 14.6562 26.2936 14.9412 26.2936 15.3169C26.2936 15.5047 26.3968 15.6925 26.4931 15.7896C26.5963 15.8868 26.7957 15.9775 27.1053 16.0746V14.6562Z" fill="#0348D9"/>
<path d="M28.529 18.8144C28.529 18.6266 28.4258 18.4388 28.3295 18.3416C28.1232 18.2445 27.9237 18.1538 27.6211 18.0566V19.3778C28.2264 19.3843 28.529 19.19 28.529 18.8144Z" fill="#0348D9"/>
<path d="M27.4148 0H27.3116C17.1524 0 8.9259 7.65526 8.9259 17.111C8.9259 21.1783 10.4529 25.1484 13.2937 28.2636C15.8317 31.1004 17.6614 34.3127 18.6794 37.8101H23.3497V25.4334C23.3497 25.3363 23.3497 25.3362 23.3497 25.2456C20 23.8272 17.7645 20.8027 17.7645 17.2082C17.7645 12.2925 22.0291 8.32238 27.3116 8.32238C32.5942 8.32238 36.8587 12.2925 36.8587 17.2082C36.8587 20.8933 34.4238 24.015 30.9709 25.3362V25.4334V37.8165H35.7444C36.7624 34.4099 38.6883 31.1068 41.2264 28.3608C44.0741 25.2391 45.6973 21.269 45.6973 17.2082C45.6973 7.75243 37.4709 0.0971482 27.4148 0Z" fill="#0348D9"/>
<path d="M3.0381 3.59424C1.61429 3.59424 0.5 4.63698 0.5 5.95819C0.5 7.27941 1.62117 8.32215 3.0381 8.32215C4.45503 8.32215 5.57619 7.27941 5.57619 5.95819C5.57619 4.6305 4.45503 3.59424 3.0381 3.59424Z" fill="#0348D9"/>
<path d="M30.971 47.2725H23.3499V52.0003H30.971V47.2725Z" fill="#0348D9"/>
<path d="M19.491 43.9628V46.1389H22.6412H31.583H34.7333V44.2478C34.7333 43.6778 34.7333 43.1144 34.8365 42.5444H19.4978C19.4909 43.0172 19.491 43.49 19.491 43.9628Z" fill="#0348D9"/>
<path d="M49.9619 35.4526C48.5381 35.4526 47.4238 36.4954 47.4238 37.8166C47.4238 39.1378 48.545 40.1805 49.9619 40.1805C51.3789 40.1805 52.5 39.1378 52.5 37.8166C52.5 36.4954 51.3857 35.4526 49.9619 35.4526Z" fill="#0348D9"/>
<path d="M19.3878 41.4113H34.9259C35.0291 40.6536 35.1322 39.8051 35.3317 39.0474H18.9819C19.1814 39.8051 19.2846 40.5629 19.3878 41.4113Z" fill="#0348D9"/>
<path d="M6.79365 33.0889C6.08518 33.0889 5.47302 33.6588 5.47302 34.3194C5.47302 34.98 6.08518 35.5499 6.79365 35.5499C7.50211 35.5499 8.11427 34.98 8.11427 34.3194C8.11427 33.6588 7.50211 33.0889 6.79365 33.0889Z" fill="#0348D9"/>
</svg>
