<svg width="53" height="52" viewBox="0 0 53 52" fill="none" xmlns="http://www.w3.org/2000/svg">
<path d="M16.2954 46.2008C16.1926 46.2954 16.0897 46.3836 15.9937 46.4782L15.8909 46.5728C15.7881 46.5728 15.7881 46.6673 15.6852 46.6673C15.5824 46.6673 15.5824 46.7619 15.4796 46.7619C15.4796 46.7619 15.3767 46.7618 15.3767 46.8564C15.2739 46.8564 15.2739 46.951 15.1711 46.951H15.0682C14.8626 47.0455 14.7666 47.1338 14.5609 47.2283C14.4581 47.2283 14.4581 47.3229 14.3552 47.3229C14.2524 47.3229 14.2524 47.4175 14.1496 47.4175C14.0467 47.4175 14.0467 47.512 13.9439 47.512C13.7382 47.512 13.7382 47.6066 13.6423 47.6066C13.5394 47.6066 13.4366 47.7011 13.3406 47.7011C13.2378 47.7011 13.2378 47.7011 13.1349 47.7957C13.0321 47.8903 12.8333 47.8902 12.6276 47.8902C12.6276 47.8902 12.6276 47.8902 12.5248 47.8902C12.422 47.8902 12.2231 47.9848 12.1203 47.9848H12.0175C11.9146 47.9848 11.7158 48.0793 11.613 48.0793H11.5376C11.4347 48.0793 11.2359 48.1739 11.0303 48.1739C10.8246 48.1739 10.7286 48.2685 10.5229 48.2685H10.4201C10.3173 48.2685 10.1185 48.2685 10.0156 48.2685C9.91279 48.2685 9.91279 48.2685 9.80995 48.2685C9.70712 48.2685 9.50831 48.2685 9.40547 48.2685C9.30264 48.2685 9.30264 48.2685 9.1998 48.2685C8.99413 48.2685 8.79532 48.2685 8.69249 48.2685C8.48682 48.2685 8.288 48.2685 8.18517 48.2685C8.08233 48.2685 8.08233 48.2685 7.9795 48.2685C7.87666 48.2685 7.67785 48.2685 7.57502 48.2685C7.47218 48.2685 7.47218 48.2685 7.36935 48.2685C7.26651 48.2685 7.0677 48.2685 6.96487 48.2685H6.87574C6.67007 48.2685 6.47126 48.2685 6.36842 48.1739C6.16276 48.1739 6.06678 48.0793 5.86111 48.0793H5.76513C5.66229 48.0793 5.46348 47.9848 5.36065 47.9848H5.25781C5.15498 47.9848 4.95616 47.8902 4.85333 47.8902C4.85333 47.8902 4.85333 47.8902 4.75049 47.8902C4.54483 47.8902 4.44885 47.7957 4.24318 47.7957C4.14034 47.7957 4.14034 47.7957 4.03751 47.7011C3.93467 47.7011 3.83184 47.6066 3.73586 47.6066C3.63303 47.6066 3.63303 47.512 3.53019 47.512C3.42736 47.512 3.42736 47.4175 3.32452 47.4175C3.22169 47.4175 3.22169 47.3229 3.11885 47.3229C3.01602 47.3229 3.01602 47.2283 2.91318 47.2283C2.70751 47.1338 2.61154 47.0455 2.40587 46.951H2.3236C2.22076 46.951 2.11793 46.8564 2.11793 46.8564C2.11793 46.8564 2.0151 46.8564 2.0151 46.7619C1.91226 46.7619 1.91226 46.6673 1.80943 46.6673C1.70659 46.6673 1.70659 46.5728 1.60376 46.5728L1.50092 46.4782C1.39809 46.3836 1.29525 46.2954 1.19927 46.2954C1.09644 46.2008 0.993606 46.1126 0.897627 46.018C0.705669 46.4719 0.5 46.9321 0.5 47.3923C0.5 49.9705 4.1472 51.994 8.69934 51.994C13.2515 51.994 16.8987 49.9705 16.8987 47.3923C16.8987 46.9321 16.7958 46.4719 16.4942 46.0117C16.4942 46.018 16.3914 46.1063 16.2954 46.2008Z" fill="#0348D9"/>
<path d="M16.5971 41.3213C16.4943 41.4158 16.3915 41.5041 16.2955 41.5987C16.1926 41.6932 16.0898 41.7815 15.9938 41.876C15.891 41.9706 15.7882 42.0588 15.6922 42.1534C15.5893 42.248 15.4865 42.3362 15.2877 42.3362C15.2877 42.3362 15.2877 42.3362 15.1849 42.3362C15.082 42.4307 14.9792 42.4308 14.7804 42.519C14.7804 42.519 14.7804 42.519 14.6775 42.519C14.5747 42.6136 14.3759 42.6136 14.2731 42.7018C14.1702 42.7964 13.9714 42.7964 13.8686 42.8846C13.7657 42.9792 13.5669 42.9792 13.4641 43.0675C13.4641 43.0675 13.4641 43.0675 13.3613 43.0675C13.2584 43.162 13.0596 43.162 12.9568 43.162H12.8539C12.7511 43.162 12.5523 43.2566 12.3466 43.2566C12.3466 43.2566 12.3466 43.2566 12.2438 43.2566C12.0381 43.2566 11.9421 43.3511 11.7365 43.3511C11.5308 43.3511 11.4348 43.4457 11.2292 43.4457C11.0235 43.4457 10.9275 43.5402 10.7218 43.5402H10.619C10.4133 43.5402 10.3174 43.5402 10.1117 43.6348H10.0089C9.80319 43.6348 9.70721 43.6348 9.50154 43.6348C9.50154 43.6348 9.50154 43.6348 9.39871 43.6348C9.19304 43.6348 8.99422 43.6348 8.89139 43.6348C8.78855 43.6348 8.48691 43.6348 8.38407 43.6348C8.38407 43.6348 8.38407 43.6348 8.28124 43.6348C8.07557 43.6348 7.97959 43.6348 7.77392 43.6348H7.67109C7.46542 43.6348 7.36944 43.6348 7.16377 43.5402H7.0815C6.87583 43.5402 6.77985 43.5402 6.57418 43.4457C6.36851 43.4457 6.27254 43.3511 6.06687 43.3511C5.8612 43.3511 5.76522 43.2566 5.55955 43.2566C5.55955 43.2566 5.55955 43.2566 5.45672 43.2566C5.25105 43.2566 5.15507 43.162 4.9494 43.162H4.85342C4.75058 43.162 4.55177 43.0675 4.44894 43.0675C4.44894 43.0675 4.44894 43.0675 4.3461 43.0675C4.14043 42.9729 4.04445 42.9729 3.94162 42.8846C3.83879 42.7901 3.63997 42.7901 3.53714 42.7018C3.4343 42.6073 3.23549 42.6073 3.13265 42.519C3.13265 42.519 3.13265 42.519 3.02982 42.519C2.92699 42.4245 2.72817 42.4244 2.62534 42.3362C2.62534 42.3362 2.62534 42.3362 2.5225 42.3362C2.41967 42.2416 2.31683 42.1534 2.11802 42.1534C2.01519 42.0588 1.91235 41.9706 1.81637 41.9706C1.71354 41.876 1.6107 41.7877 1.51472 41.6932C1.41189 41.5986 1.30906 41.5104 1.21308 41.4159C1.00741 41.876 0.808594 42.3362 0.808594 42.7964C0.808594 43.4393 1.11024 44.0824 1.51472 44.6371C1.51472 44.6371 1.51472 44.6371 1.61756 44.7316C2.83101 46.2067 5.46357 47.2153 8.3018 47.3982C8.40464 47.3982 8.40464 47.3982 8.50747 47.3982H8.61031C8.71314 47.3982 8.81598 47.3982 9.01479 47.3982C9.22046 47.3982 9.22046 47.3982 9.41927 47.3982H9.52211C9.62494 47.3982 9.62494 47.3982 9.72778 47.3982C12.5592 47.2153 15.1917 46.295 16.412 44.7316C16.412 44.7316 16.412 44.7316 16.5149 44.6371C17.0222 44.0824 17.221 43.4393 17.221 42.7964C17.0016 42.1471 16.8988 41.6869 16.5971 41.3213Z" fill="#0348D9"/>
<path d="M17.5088 44.9084C17.5088 45.0029 17.6116 45.0912 17.6116 45.0912C17.6116 44.9966 17.7145 44.9084 17.7145 44.9084C17.7145 44.8138 17.6116 44.7256 17.6116 44.7256C17.6116 44.8201 17.5088 44.9084 17.5088 44.9084Z" fill="#0348D9"/>
<path d="M8.80212 33.4102C4.34596 33.4102 0.602783 35.4337 0.602783 38.0119C0.602783 38.6549 0.904431 39.2979 1.41175 39.9472C2.22071 40.9621 3.74266 41.6933 5.46343 42.1535C5.56626 42.1535 5.6691 42.1535 5.76508 42.2481C5.97075 42.2481 6.06673 42.3426 6.27239 42.3426C7.08136 42.5254 7.99316 42.62 8.80212 42.62C11.942 42.62 14.7734 41.6051 16.1925 39.9535C16.6998 39.3105 17.0015 38.6675 17.0015 38.0182C17.0015 35.5219 13.3543 33.4102 8.80212 33.4102Z" fill="#0348D9"/>
<path d="M17.5088 40.3127C17.5088 40.4073 17.6116 40.4955 17.6116 40.4955C17.6116 40.401 17.7145 40.3127 17.7145 40.3127C17.6116 40.2182 17.6116 40.1299 17.6116 40.1299C17.6116 40.2181 17.5088 40.2182 17.5088 40.3127Z" fill="#0348D9"/>
<path d="M33.9076 46.2004C33.8047 46.2949 33.7019 46.3832 33.6059 46.4777L33.5031 46.5723C33.4003 46.5723 33.4003 46.6668 33.2974 46.6668C33.1946 46.6668 33.1946 46.7614 33.0918 46.7614C33.0918 46.7614 32.9889 46.7614 32.9889 46.856C32.8861 46.856 32.7833 46.9505 32.7833 46.9505C32.5776 47.0451 32.3788 47.1333 32.1731 47.2279C32.0703 47.2279 32.0703 47.3225 31.9674 47.3225C31.8646 47.3225 31.7618 47.417 31.7618 47.417C31.6589 47.417 31.6589 47.5116 31.5561 47.5116C31.4533 47.5116 31.4533 47.6061 31.3504 47.6061C31.2476 47.6061 31.1448 47.7007 31.0488 47.7007C30.9459 47.7007 30.9459 47.7007 30.8431 47.7953C30.7403 47.8898 30.5415 47.8898 30.4386 47.8898H30.3358C30.233 47.8898 30.0341 47.9844 29.9313 47.9844H29.8285C29.7256 47.9844 29.6228 48.0789 29.424 48.0789H29.3212C29.2183 48.0789 29.0195 48.1735 28.9167 48.1735C28.9167 48.1735 28.9167 48.1735 28.8138 48.1735C28.6082 48.1735 28.5122 48.268 28.3065 48.268H28.2037C28.1009 48.268 27.902 48.268 27.7992 48.268C27.6964 48.268 27.6964 48.268 27.5935 48.268C27.4907 48.268 27.2919 48.268 27.1891 48.268C27.0862 48.268 27.0862 48.268 26.9834 48.268C26.7777 48.268 26.5789 48.268 26.4761 48.268C26.2704 48.268 26.0716 48.268 25.9688 48.268C25.8659 48.268 25.8659 48.268 25.7631 48.268C25.6602 48.268 25.4614 48.268 25.3586 48.268C25.2558 48.268 25.2558 48.268 25.1529 48.268C25.0501 48.268 24.8513 48.268 24.7484 48.268H24.6456C24.4399 48.268 24.2411 48.268 24.1383 48.1735C23.9326 48.1735 23.8367 48.0789 23.631 48.0789H23.5281C23.4253 48.0789 23.2265 47.9844 23.1237 47.9844H23.0208C22.918 47.9844 22.7192 47.8898 22.6163 47.8898C22.6163 47.8898 22.6163 47.8898 22.5135 47.8898C22.3078 47.8898 22.2119 47.7953 22.0062 47.7953C21.9034 47.7953 21.9034 47.7952 21.8005 47.7007C21.6977 47.7007 21.5949 47.6061 21.4989 47.6061C21.396 47.6061 21.396 47.5116 21.2932 47.5116C21.1904 47.5116 21.1904 47.417 21.0875 47.417C20.9847 47.417 20.9847 47.3225 20.8819 47.3225C20.779 47.3225 20.779 47.2279 20.6762 47.2279C20.4705 47.1333 20.3746 47.0451 20.1689 46.9505H20.0661C19.9632 46.9505 19.8604 46.856 19.8604 46.856C19.8604 46.856 19.7575 46.856 19.7575 46.7614C19.6547 46.7614 19.6547 46.6668 19.5519 46.6668C19.449 46.6668 19.449 46.5723 19.3462 46.5723L19.2434 46.4777C19.1405 46.3832 19.0377 46.2949 18.9417 46.2949C18.8389 46.2004 18.7361 46.1121 18.6401 46.0176C18.4344 46.4778 18.2356 46.9379 18.2356 47.3981C18.2356 49.9764 21.8828 51.9999 26.4349 51.9999C30.8911 51.9999 34.6343 49.9764 34.6343 47.3981C34.6343 46.9379 34.5314 46.4778 34.2298 46.0176C34.1132 46.0176 34.0104 46.1058 33.9076 46.2004Z" fill="#0348D9"/>
<path d="M35.2237 0.0945338C32.7968 0.0945338 30.6647 0.832107 29.1496 2.21264C27.5317 3.68773 26.7227 5.71121 26.8187 8.0121C26.7158 7.82929 26.517 7.73473 26.2085 7.73473C25.804 7.73473 25.5024 8.01211 25.5024 8.37773V15.003C21.4507 15.2804 18.2148 17.2093 18.2148 19.6048C18.2148 20.2478 18.5165 20.8908 19.0238 21.5401C19.8328 22.4604 21.1491 23.2862 22.767 23.7464C22.8698 23.7464 22.9727 23.841 23.0686 23.841C23.3703 23.9355 23.7748 24.0238 24.1792 24.0238C24.8854 24.1183 25.7012 24.2065 26.5102 24.2065C29.65 24.2065 32.4814 23.1917 33.9005 21.5401C34.4079 20.8971 34.7095 20.2541 34.7095 19.6048C34.7095 17.1211 31.268 15.1858 27.0175 15.003V8.37773C27.2231 8.37773 27.422 8.37773 27.6276 8.37773C30.0545 8.37773 32.1866 7.64019 33.7017 6.25966C35.4225 4.69632 36.2315 2.4837 36.0326 0C35.731 0.0945569 35.4293 0.0945338 35.2237 0.0945338Z" fill="#0348D9"/>
<path d="M33.9076 41.5988C33.8047 41.6934 33.7019 41.7816 33.6059 41.8762L33.5031 41.9707C33.4003 41.9707 33.4003 42.0653 33.2974 42.0653C33.1946 42.0653 33.1946 42.1599 33.0918 42.1599C33.0918 42.1599 32.9889 42.1598 32.9889 42.2544C32.8861 42.2544 32.7833 42.349 32.7833 42.349C32.5776 42.4435 32.3788 42.5318 32.1731 42.6263C32.0703 42.6263 32.0703 42.7209 31.9674 42.7209C31.8646 42.7209 31.7618 42.8154 31.7618 42.8154C31.6589 42.8154 31.6589 42.91 31.5561 42.91C31.4533 42.91 31.4533 43.0045 31.3504 43.0045C31.2476 43.0045 31.1448 43.0991 31.0488 43.0991C30.9459 43.0991 30.9459 43.0991 30.8431 43.1937C30.7403 43.2882 30.5415 43.2882 30.4386 43.2882H30.3358C30.233 43.2882 30.0341 43.3828 29.9313 43.3828H29.8285C29.7256 43.3828 29.6228 43.4773 29.424 43.4773H29.3212C29.2183 43.4773 29.0195 43.5719 28.9167 43.5719C28.9167 43.5719 28.9167 43.5719 28.8138 43.5719C28.6082 43.5719 28.5122 43.6664 28.3065 43.6664H28.2037C28.1009 43.6664 27.902 43.6664 27.7992 43.6664C27.6964 43.6664 27.6964 43.6664 27.5935 43.6664C27.4907 43.6664 27.2919 43.6664 27.1891 43.6664C27.0862 43.6664 27.0862 43.6664 26.9834 43.6664C26.7777 43.6664 26.5789 43.6664 26.4761 43.6664C26.2704 43.6664 26.0716 43.6664 25.9688 43.6664C25.8659 43.6664 25.8659 43.6664 25.7631 43.6664C25.6602 43.6664 25.4614 43.6664 25.3586 43.6664C25.2558 43.6664 25.2558 43.6664 25.1529 43.6664C25.0501 43.6664 24.8513 43.6664 24.7484 43.6664H24.6456C24.4399 43.6664 24.2411 43.6665 24.1383 43.5719C23.9326 43.5719 23.8367 43.4773 23.631 43.4773H23.5281C23.4253 43.4773 23.2265 43.3828 23.1237 43.3828H23.0208C22.918 43.3828 22.7192 43.2882 22.6163 43.2882C22.6163 43.2882 22.6163 43.2882 22.5135 43.2882C22.3078 43.2882 22.2119 43.1937 22.0062 43.1937C21.9034 43.1937 21.9034 43.1937 21.8005 43.0991C21.6977 43.0991 21.5949 43.0045 21.4989 43.0045C21.396 43.0045 21.396 42.91 21.2932 42.91C21.1904 42.91 21.1904 42.8154 21.0875 42.8154C20.9847 42.8154 20.9847 42.7209 20.8819 42.7209C20.779 42.7209 20.779 42.6263 20.6762 42.6263C20.4705 42.5318 20.3746 42.4435 20.1689 42.349H20.0661C19.9632 42.349 19.8604 42.2544 19.8604 42.2544C19.8604 42.2544 19.7575 42.2544 19.7575 42.1599C19.6547 42.1599 19.6547 42.0653 19.5519 42.0653C19.449 42.0653 19.449 41.9707 19.3462 41.9707L19.2434 41.8762C19.1405 41.7816 19.0377 41.6933 18.9417 41.6933C18.8389 41.5988 18.7361 41.5106 18.6401 41.416C18.4344 41.8762 18.2356 42.3363 18.2356 42.7965C18.2356 43.4395 18.5372 44.0825 18.9417 44.6372C18.9417 44.6372 18.9417 44.6372 19.0446 44.7318C20.258 46.2069 22.8906 47.2155 25.7288 47.3983C25.8316 47.3983 25.8316 47.3983 25.9345 47.3983H26.0373C26.1401 47.3983 26.243 47.3983 26.4418 47.3983C26.6475 47.3983 26.6475 47.3983 26.8463 47.3983H26.9491C27.0519 47.3983 27.0519 47.3983 27.1548 47.3983C29.9862 47.2155 32.6187 46.2951 33.839 44.7318C33.839 44.7318 33.839 44.7318 33.9419 44.6372C34.4492 44.0825 34.648 43.4395 34.648 42.7965C34.648 42.3363 34.5452 41.8762 34.2435 41.416C34.1132 41.416 34.0104 41.5043 33.9076 41.5988Z" fill="#0348D9"/>
<path d="M7.18418 22.5485C7.18418 22.454 7.08134 22.2712 6.97851 22.2712C6.87567 22.1766 6.67686 22.0884 6.47119 22.0884V23.0087C6.87567 22.9205 7.18418 22.8259 7.18418 22.5485Z" fill="#0348D9"/>
<path d="M45.4523 13.9C48.5922 13.9 51.1219 11.5992 51.1219 8.74984C51.1219 5.90052 48.5922 3.59961 45.4523 3.59961C42.3124 3.59961 39.7827 5.90052 39.7827 8.74984C39.7827 11.5992 42.3124 13.9 45.4523 13.9ZM44.945 9.11543C44.6434 9.02087 44.4377 8.93262 44.2389 8.83806C44.0332 8.7435 43.8344 8.65525 43.7316 8.56069C43.6287 8.46614 43.5259 8.28335 43.4299 8.1951C43.3271 8.10054 43.3271 7.82948 43.3271 7.64036C43.3271 7.363 43.4299 7.1802 43.5327 6.90283C43.6356 6.72002 43.7384 6.53721 43.9372 6.34809C44.1429 6.16528 44.3417 6.07072 44.5474 5.98246C44.7531 5.88791 45.0547 5.79967 45.2535 5.79967V5.06209H45.8637V5.79967C46.2681 5.79967 46.5698 5.89421 46.8783 5.98246C47.1799 6.07702 47.4885 6.25984 47.6873 6.34809L47.0771 7.36299L46.9743 7.26842C46.8714 7.17387 46.7686 7.17388 46.6726 7.08563C46.5698 6.99107 46.371 6.99108 46.2681 6.90283C46.0625 6.80827 45.9665 6.80826 45.7608 6.80826V8.00599L46.0625 8.10053C46.3641 8.19509 46.5698 8.28334 46.8714 8.3779C47.0771 8.47245 47.2759 8.56071 47.4816 8.65527C47.6873 8.74982 47.7832 8.93262 47.8861 9.11543C47.9889 9.29824 47.9889 9.48106 47.9889 9.75843C47.9889 10.0358 47.8861 10.3132 47.7832 10.496C47.6804 10.6788 47.4816 10.8616 47.3788 10.9562C47.1731 11.0507 46.9743 11.139 46.7686 11.2335C46.5629 11.3281 46.2613 11.3281 45.9596 11.3281V12.2484H45.3495V11.3281C44.945 11.3281 44.5405 11.2335 44.2389 11.1453C43.8344 11.0507 43.5327 10.8679 43.2242 10.6851L43.8344 9.58194C43.8344 9.58194 43.9372 9.67648 44.0401 9.67648C44.1429 9.77103 44.2457 9.77102 44.4445 9.85927C44.6502 9.95383 44.7462 9.95385 44.9519 10.0421C45.1575 10.1367 45.3563 10.1366 45.562 10.1366V9.12174H44.945V9.11543Z" fill="#0348D9"/>
<path d="M45.3497 6.99707C44.9452 6.99707 44.7395 7.17987 44.7395 7.45724C44.7395 7.55179 44.7395 7.64005 44.8423 7.7346C44.9452 7.82916 45.048 7.91744 45.2468 7.91744V6.99707H45.3497Z" fill="#0348D9"/>
<path d="M6.27238 26.5074C9.41226 26.5074 11.942 24.2066 11.942 21.3573C11.942 18.5016 9.41226 16.207 6.27238 16.207C3.1325 16.207 0.602768 18.5079 0.602768 21.3573C0.499933 24.2066 3.1325 26.5074 6.27238 26.5074ZM5.66223 21.8111C5.36058 21.7166 5.15491 21.6283 4.9561 21.5337C4.75043 21.4392 4.55161 21.3509 4.44878 21.2564C4.34595 21.1618 4.24311 20.979 4.14713 20.8907C4.0443 20.7079 4.0443 20.5252 4.0443 20.336C4.0443 20.0587 4.14713 19.8758 4.24997 19.5985C4.3528 19.4157 4.45564 19.2329 4.65445 19.0437C4.86012 18.8609 5.05893 18.7664 5.2646 18.6781C5.47027 18.5836 5.77192 18.4953 5.97073 18.4953V17.7578H6.58088V18.4953C6.98537 18.4953 7.28701 18.5899 7.59552 18.6781C7.89717 18.7727 8.20567 18.9555 8.40448 19.0437L7.79433 20.0587L7.6915 19.9641C7.58866 19.8695 7.48583 19.8696 7.38985 19.7813C7.28701 19.6868 7.0882 19.6867 6.98537 19.5985C6.7797 19.5039 6.68372 19.5039 6.47805 19.5039V20.5188L6.7797 20.6134C7.08134 20.708 7.28701 20.7962 7.58866 20.8907C7.79433 20.9853 7.99314 21.0736 8.19881 21.1681C8.40448 21.2627 8.50046 21.4455 8.6033 21.6283C8.70613 21.8111 8.70613 21.9939 8.70613 22.2713C8.70613 22.5486 8.6033 22.826 8.50046 23.0089C8.39763 23.1917 8.19881 23.3745 8.09598 23.469C7.89031 23.5636 7.6915 23.6518 7.48583 23.7464C7.28016 23.8409 6.97851 23.841 6.67686 23.841V24.7613H6.06671V23.841C5.66223 23.841 5.25775 23.7464 4.9561 23.6581C4.55161 23.5636 4.24997 23.3808 3.94146 23.198L4.55161 22.0948C4.55161 22.0948 4.65445 22.1894 4.75728 22.1894C4.86012 22.2839 4.96295 22.2839 5.16177 22.3722C5.36744 22.4667 5.46341 22.4667 5.66908 22.555C5.87475 22.6495 6.07357 22.6495 6.27923 22.6495V21.6346L5.66223 21.8111Z" fill="#0348D9"/>
<path d="M6.06669 19.605C5.66221 19.605 5.45654 19.7878 5.45654 20.0651C5.45654 20.1597 5.45654 20.248 5.55938 20.3425C5.66221 20.4371 5.76505 20.5253 5.96386 20.5253C6.06669 20.6199 6.06669 19.605 6.06669 19.605Z" fill="#0348D9"/>
<path d="M24.6935 8.47201C24.8992 8.47201 25.2008 8.47201 25.3996 8.47201C25.6053 5.98831 24.7895 3.78199 23.0687 2.21234C21.5468 0.831811 19.4215 0.0942383 16.9946 0.0942383C16.789 0.0942383 16.4873 0.0942383 16.2885 0.0942383C16.0828 2.57793 16.8987 4.78426 18.6194 6.3539C20.1414 7.73443 22.2666 8.47201 24.6935 8.47201Z" fill="#0348D9"/>
<path d="M46.3573 9.85327C46.3573 9.75871 46.2544 9.5759 46.1516 9.5759C46.0488 9.48134 45.85 9.39307 45.6443 9.39307V10.3134C46.1585 10.3134 46.3573 10.1243 46.3573 9.85327Z" fill="#0348D9"/>
<path d="M35.1208 35.711C35.2237 35.8055 35.2237 35.8938 35.3265 35.9883C35.4294 35.8938 35.4294 35.8055 35.5322 35.711C35.4294 35.6164 35.4294 35.5282 35.3265 35.4336C35.2237 35.5218 35.1208 35.6164 35.1208 35.711Z" fill="#0348D9"/>
<path d="M51.6225 46.2004C51.5197 46.2949 51.4168 46.3832 51.3209 46.4777L51.218 46.5723C51.1152 46.5723 51.1152 46.6668 51.0124 46.6668C50.9095 46.6668 50.9095 46.7614 50.8067 46.7614C50.8067 46.7614 50.7039 46.7614 50.7039 46.856C50.601 46.856 50.4982 46.9505 50.4982 46.9505C50.2925 47.0451 50.0937 47.1333 49.888 47.2279C49.7852 47.2279 49.7852 47.3225 49.6824 47.3225C49.5795 47.3225 49.4767 47.417 49.4767 47.417C49.3739 47.417 49.3739 47.5116 49.271 47.5116C49.1682 47.5116 49.1682 47.6061 49.0654 47.6061C48.9625 47.6061 48.8597 47.7007 48.7637 47.7007C48.6677 47.7007 48.6609 47.7007 48.558 47.7953C48.4552 47.8898 48.2564 47.8898 48.1536 47.8898H48.0782C47.9753 47.8898 47.7765 47.9844 47.6737 47.9844H47.5708C47.468 47.9844 47.3652 48.0789 47.1664 48.0789H47.0635C46.9607 48.0789 46.7619 48.1735 46.659 48.1735C46.659 48.1735 46.659 48.1735 46.5562 48.1735C46.3505 48.1735 46.2546 48.268 46.0489 48.268H45.9529C45.8501 48.268 45.6513 48.268 45.5484 48.268C45.4456 48.268 45.4456 48.268 45.3428 48.268C45.2399 48.268 45.0411 48.268 44.9383 48.268C44.8354 48.268 44.8354 48.268 44.7326 48.268C44.5269 48.268 44.3281 48.268 44.2253 48.268C44.1225 48.268 43.8208 48.268 43.718 48.268C43.6151 48.268 43.6151 48.268 43.5123 48.268C43.4095 48.268 43.2107 48.268 43.1078 48.268C43.005 48.268 43.005 48.268 42.9021 48.268C42.7993 48.268 42.6005 48.268 42.4977 48.268H42.3948C42.1892 48.268 42.0932 48.268 41.8875 48.1735C41.8875 48.1735 41.8875 48.1735 41.7847 48.1735C41.6818 48.1735 41.483 48.0789 41.3802 48.0789H41.2774C41.1745 48.0789 41.0717 47.9844 40.8729 47.9844H40.77C40.6672 47.9844 40.4684 47.8898 40.3656 47.8898H40.2627C40.0571 47.8898 39.9611 47.7953 39.8582 47.7953C39.7554 47.7953 39.7554 47.7952 39.6526 47.7007C39.5497 47.7007 39.4469 47.6061 39.3509 47.6061C39.2481 47.6061 39.2481 47.5116 39.1453 47.5116C39.0424 47.5116 39.0424 47.417 38.9396 47.417C38.8368 47.417 38.7339 47.3225 38.7339 47.3225C38.6311 47.3225 38.6311 47.2279 38.5283 47.2279C38.3226 47.1333 38.1238 47.0451 37.9181 46.9505C37.8153 46.9505 37.7124 46.856 37.7124 46.856C37.7124 46.856 37.6096 46.856 37.6096 46.7614C37.5068 46.7614 37.5068 46.6668 37.4039 46.6668C37.3011 46.6668 37.3011 46.5723 37.1983 46.5723L37.0954 46.4777C36.9926 46.3832 36.8898 46.2949 36.7938 46.2949C36.6909 46.2004 36.5881 46.1121 36.4921 46.0176C36.2865 46.4778 36.0876 46.9379 36.0876 47.3981C36.0876 49.9764 39.7348 51.9999 44.287 51.9999C48.8391 51.9999 52.4863 49.9764 52.4863 47.3981C52.4863 46.9379 52.3835 46.4778 52.0818 46.0176C51.8282 46.0176 51.7254 46.1058 51.6225 46.2004Z" fill="#0348D9"/>
<path d="M51.6225 41.5988C51.5197 41.6934 51.4168 41.7816 51.3209 41.8762L51.218 41.9707C51.1152 41.9707 51.1152 42.0653 51.0124 42.0653C50.9095 42.0653 50.9095 42.1599 50.8067 42.1599C50.8067 42.1599 50.7039 42.1598 50.7039 42.2544C50.601 42.2544 50.4982 42.349 50.4982 42.349C50.2925 42.4435 50.0937 42.5318 49.888 42.6263C49.7852 42.6263 49.7852 42.7209 49.6824 42.7209C49.5795 42.7209 49.4767 42.8154 49.4767 42.8154C49.3739 42.8154 49.3739 42.91 49.271 42.91C49.1682 42.91 49.1682 43.0045 49.0654 43.0045C48.9625 43.0045 48.8597 43.0991 48.7637 43.0991C48.6677 43.0991 48.6609 43.0991 48.558 43.1937C48.4552 43.2882 48.2564 43.2882 48.1536 43.2882H48.0782C47.9753 43.2882 47.7765 43.3828 47.6737 43.3828H47.5708C47.468 43.3828 47.3652 43.4773 47.1664 43.4773H47.0635C46.9607 43.4773 46.7619 43.5719 46.659 43.5719C46.659 43.5719 46.659 43.5719 46.5562 43.5719C46.3505 43.5719 46.2546 43.6664 46.0489 43.6664H45.9529C45.8501 43.6664 45.6513 43.6664 45.5484 43.6664C45.4456 43.6664 45.4456 43.6664 45.3428 43.6664C45.2399 43.6664 45.0411 43.6664 44.9383 43.6664C44.8354 43.6664 44.8354 43.6664 44.7326 43.6664C44.5269 43.6664 44.3281 43.6664 44.2253 43.6664C44.1225 43.6664 43.8208 43.6664 43.718 43.6664C43.6151 43.6664 43.6151 43.6664 43.5123 43.6664C43.4095 43.6664 43.2107 43.6664 43.1078 43.6664C43.005 43.6664 43.005 43.6664 42.9021 43.6664C42.7993 43.6664 42.6005 43.6664 42.4977 43.6664H42.3948C42.1892 43.6664 42.0932 43.6665 41.8875 43.5719C41.8875 43.5719 41.8875 43.5719 41.7847 43.5719C41.6818 43.5719 41.483 43.4773 41.3802 43.4773H41.2774C41.1745 43.4773 41.0717 43.3828 40.8729 43.3828H40.77C40.6672 43.3828 40.4684 43.2882 40.3656 43.2882H40.2627C40.0571 43.2882 39.9611 43.1937 39.8582 43.1937C39.7554 43.1937 39.7554 43.1937 39.6526 43.0991C39.5497 43.0991 39.4469 43.0045 39.3509 43.0045C39.2481 43.0045 39.2481 42.91 39.1453 42.91C39.0424 42.91 39.0424 42.8154 38.9396 42.8154C38.8368 42.8154 38.7339 42.7209 38.7339 42.7209C38.6311 42.7209 38.6311 42.6263 38.5283 42.6263C38.3226 42.5318 38.1238 42.4435 37.9181 42.349C37.8153 42.349 37.7124 42.2544 37.7124 42.2544C37.7124 42.2544 37.6096 42.2544 37.6096 42.1599C37.5068 42.1599 37.5068 42.0653 37.4039 42.0653C37.3011 42.0653 37.3011 41.9707 37.1983 41.9707L37.0954 41.8762C36.9926 41.7816 36.8898 41.6933 36.7938 41.6933C36.6909 41.5988 36.5881 41.5106 36.4921 41.416C36.2865 41.8762 36.0876 42.3363 36.0876 42.7965C36.0876 43.4395 36.3893 44.0825 36.7938 44.6372C36.7938 44.6372 36.7938 44.6372 36.8966 44.7318C38.1101 46.2069 40.7426 47.2155 43.5809 47.3983C43.6837 47.3983 43.6837 47.3983 43.7865 47.3983H43.8894C43.9922 47.3983 44.095 47.3983 44.2938 47.3983C44.4995 47.3983 44.4995 47.3983 44.6983 47.3983H44.8012C44.904 47.3983 44.904 47.3983 45.0068 47.3983C47.8382 47.2155 50.4708 46.2951 51.6911 44.7318C51.6911 44.7318 51.6911 44.7318 51.7939 44.6372C52.3012 44.0825 52.5 43.4395 52.5 42.7965C52.5 42.3363 52.3972 41.8762 52.0956 41.416C51.8282 41.416 51.7254 41.5043 51.6225 41.5988Z" fill="#0348D9"/>
<path d="M44.1361 38.0121C47.276 38.0121 50.1074 36.9972 51.5265 35.3456C52.0338 34.7026 52.3355 34.0596 52.3355 33.4104C52.3355 30.8321 48.6883 28.8086 44.1361 28.8086C39.5771 28.8086 35.9368 30.8321 35.9368 33.4104C35.9368 34.0533 36.2384 34.6963 36.7457 35.3456C38.158 36.9972 40.9962 38.0121 44.1361 38.0121Z" fill="#0348D9"/>
<path d="M33.9076 36.9968C33.8047 37.0914 33.7019 37.1796 33.6059 37.2742L33.5031 37.3687C33.4003 37.3687 33.4003 37.4633 33.2974 37.4633C33.1946 37.4633 33.1946 37.5578 33.0918 37.5578C33.0918 37.5578 32.9889 37.5578 32.9889 37.6524C32.8861 37.6524 32.7833 37.747 32.7833 37.747C32.5776 37.8415 32.3788 37.9298 32.1731 38.0243C32.0703 38.0243 32.0703 38.1189 31.9674 38.1189C31.8646 38.1189 31.7618 38.2134 31.7618 38.2134C31.6589 38.2134 31.6589 38.308 31.5561 38.308C31.4533 38.308 31.4533 38.4025 31.3504 38.4025C31.2476 38.4025 31.1448 38.4971 31.0488 38.4971C30.9459 38.4971 30.9459 38.4971 30.8431 38.5916C30.7403 38.6862 30.5415 38.6862 30.4386 38.6862H30.3358C30.233 38.6862 30.0341 38.7807 29.9313 38.7807H29.8285C29.7256 38.7807 29.6228 38.8753 29.424 38.8753H29.3212C29.2183 38.8753 29.0195 38.9699 28.9167 38.9699C28.9167 38.9699 28.9167 38.9699 28.8138 38.9699C28.6082 38.9699 28.5122 39.0644 28.3065 39.0644H28.2037C28.1009 39.0644 27.902 39.0644 27.7992 39.0644C27.6964 39.0644 27.6964 39.0644 27.5935 39.0644C27.4907 39.0644 27.2919 39.0644 27.1891 39.0644C27.0862 39.0644 27.0862 39.0644 26.9834 39.0644C26.7777 39.0644 26.5789 39.0644 26.4761 39.0644C26.2704 39.0644 26.0716 39.0644 25.9688 39.0644C25.8659 39.0644 25.8659 39.0644 25.7631 39.0644C25.6602 39.0644 25.4614 39.0644 25.3586 39.0644C25.2558 39.0644 25.2558 39.0644 25.1529 39.0644C25.0501 39.0644 24.8513 39.0644 24.7484 39.0644H24.6456C24.4399 39.0644 24.2411 39.0644 24.1383 38.9699C23.9326 38.9699 23.8367 38.8753 23.631 38.8753H23.5281C23.4253 38.8753 23.2265 38.7807 23.1237 38.7807H23.0208C22.918 38.7807 22.7192 38.6862 22.6163 38.6862C22.6163 38.6862 22.6163 38.6862 22.5135 38.6862C22.3078 38.6862 22.2119 38.5916 22.0062 38.5916C21.9034 38.5916 21.9034 38.5917 21.8005 38.4971C21.6977 38.4971 21.5949 38.4025 21.4989 38.4025C21.396 38.4025 21.396 38.308 21.2932 38.308C21.1904 38.308 21.1904 38.2134 21.0875 38.2134C20.9847 38.2134 20.9847 38.1189 20.8819 38.1189C20.779 38.1189 20.779 38.0243 20.6762 38.0243C20.4705 37.9298 20.3746 37.8415 20.1689 37.747H20.0661C19.9632 37.747 19.8604 37.6524 19.8604 37.6524C19.8604 37.6524 19.7575 37.6524 19.7575 37.5578C19.6547 37.5578 19.6547 37.4633 19.5519 37.4633C19.449 37.4633 19.449 37.3687 19.3462 37.3687L19.2434 37.2742C19.1405 37.1796 19.0377 37.0913 18.9417 37.0913C18.8389 36.9968 18.7361 36.9085 18.6401 36.814C18.4344 37.2741 18.2356 37.7343 18.2356 38.1945C18.2356 38.8375 18.5372 39.4805 18.9417 40.0352C18.9417 40.0352 18.9417 40.0352 19.0446 40.1298C20.258 41.6049 22.8906 42.6135 25.7288 42.7963C25.8316 42.7963 25.8316 42.7963 25.9345 42.7963H26.0373C26.1401 42.7963 26.243 42.7963 26.4418 42.7963C26.6475 42.7963 26.6475 42.7963 26.8463 42.7963H26.9491C27.0519 42.7963 27.0519 42.7963 27.1548 42.7963C29.9862 42.6135 32.6187 41.6931 33.839 40.1298C33.839 40.1298 33.839 40.1298 33.9419 40.0352C34.4492 39.4805 34.648 38.8375 34.648 38.1945C34.648 37.7343 34.5452 37.2741 34.2435 36.814C34.1132 36.814 34.0104 36.9022 33.9076 36.9968Z" fill="#0348D9"/>
<path d="M51.9311 36.7197C51.8283 36.8143 51.7254 36.9025 51.6295 36.9971C51.6295 36.9971 51.6294 36.9971 51.5266 36.9971C51.4238 37.0917 51.3209 37.1799 51.225 37.2745C51.1221 37.369 51.0193 37.4573 50.9233 37.4573C50.8205 37.5518 50.7176 37.6401 50.5188 37.6401C50.5188 37.6401 50.5188 37.6401 50.416 37.6401C50.3132 37.7346 50.2103 37.7346 50.0115 37.8229C50.0115 37.8229 50.0115 37.8229 49.9087 37.8229C49.8058 37.9174 49.607 37.9174 49.5042 38.0057C49.5042 38.0057 49.5042 38.0057 49.4014 38.0057C49.2985 38.1002 49.0997 38.1002 48.9969 38.1885C48.894 38.283 48.6952 38.2831 48.5924 38.3713C48.5924 38.3713 48.5924 38.3713 48.4896 38.3713C48.3867 38.3713 48.1879 38.4659 48.0851 38.4659H47.9823C47.8794 38.4659 47.6806 38.5604 47.5778 38.5604H47.4749C47.2693 38.5604 47.1733 38.655 46.9676 38.655C46.7619 38.655 46.666 38.7495 46.4603 38.7495C46.4603 38.7495 46.4603 38.7495 46.3575 38.7495C46.1518 38.7495 46.0558 38.8441 45.8501 38.8441H45.7473C45.5416 38.8441 45.4457 38.8441 45.24 38.9386H45.1372C44.9315 38.9386 44.8355 38.9386 44.6298 38.9386C44.6298 38.9386 44.6298 38.9386 44.527 38.9386C44.3213 38.9386 44.1225 38.9386 44.0197 38.9386C43.9169 38.9386 43.6152 38.9386 43.5124 38.9386C43.5124 38.9386 43.5124 38.9386 43.4095 38.9386C43.2039 38.9386 43.1079 38.9386 42.9022 38.9386H42.7994C42.5937 38.9386 42.4977 38.9387 42.2921 38.8441H42.1892C41.9836 38.8441 41.8876 38.8441 41.6819 38.7495C41.4763 38.7495 41.3803 38.655 41.1746 38.655C40.9689 38.655 40.873 38.5604 40.6673 38.5604H40.5645C40.3588 38.5604 40.2628 38.4659 40.16 38.4659H40.0571C39.9543 38.4659 39.7555 38.3713 39.6527 38.3713C39.6527 38.3713 39.6527 38.3713 39.5498 38.3713C39.447 38.2768 39.2482 38.2767 39.1453 38.1885C39.0425 38.0939 38.8437 38.0939 38.7409 38.0057C38.7409 38.0057 38.7409 38.0057 38.638 38.0057C38.5352 37.9111 38.3364 37.9111 38.2335 37.8229C38.2335 37.8229 38.2335 37.8229 38.1307 37.8229C38.0279 37.7283 37.925 37.7283 37.7262 37.6401C37.7262 37.6401 37.7262 37.6401 37.6234 37.6401C37.5206 37.5455 37.4177 37.5455 37.2189 37.4573C37.1161 37.3627 37.0132 37.2745 36.9173 37.2745C36.8144 37.1799 36.7116 37.0917 36.6156 36.9971C36.6156 36.9971 36.6156 36.9971 36.5128 36.9971C36.4099 36.9025 36.3071 36.8143 36.2111 36.7197C36.0055 37.1799 35.8066 37.6401 35.8066 38.1003C35.8066 38.7432 36.1083 39.3862 36.5128 39.941C36.5128 39.941 36.5128 39.941 36.6156 40.0355C37.8291 41.5106 40.4616 42.5192 43.2999 42.702C43.4027 42.702 43.4027 42.702 43.5055 42.702H43.6084C43.7112 42.702 43.814 42.702 44.0128 42.702C44.2185 42.702 44.2185 42.702 44.4173 42.702H44.5202C44.623 42.702 44.623 42.702 44.7258 42.702C47.5572 42.5192 50.1898 41.5989 51.4101 40.0355C51.4101 40.0355 51.4101 40.0355 51.5129 39.941C52.0202 39.3862 52.219 38.7432 52.219 38.1003C52.3356 37.5518 52.1299 37.0917 51.9311 36.7197Z" fill="#0348D9"/>
<path d="M34.2093 22.9204C34.1064 23.015 34.0036 23.1032 33.9076 23.1978C33.8048 23.2923 33.7019 23.3806 33.606 23.4751C33.5031 23.5697 33.4003 23.6579 33.3043 23.6579C33.2015 23.7525 33.0986 23.8408 32.8998 23.8408C32.8998 23.8408 32.8998 23.8408 32.797 23.8408C32.6942 23.9353 32.5913 23.9353 32.3925 24.0236C32.3925 24.0236 32.3925 24.0236 32.2897 24.0236C32.1868 24.1181 31.988 24.1181 31.8852 24.2064C31.8852 24.2064 31.8852 24.2064 31.7824 24.2064C31.6795 24.3009 31.4807 24.301 31.3779 24.3892C31.2751 24.4838 31.0762 24.4837 30.9734 24.572C30.9734 24.572 30.9734 24.572 30.8706 24.572C30.7677 24.6666 30.5689 24.6666 30.4661 24.6666H30.3633C30.2604 24.6666 30.0616 24.7611 29.9588 24.7611H29.8559C29.6503 24.7611 29.5543 24.8557 29.3486 24.8557C29.1429 24.8557 29.047 24.9502 28.8413 24.9502C28.6356 24.9502 28.5397 25.0448 28.334 25.0448H28.2311C28.0255 25.0448 27.9295 25.0448 27.7238 25.1394H27.621C27.4153 25.1394 27.3193 25.1394 27.1137 25.1394C27.1137 25.1394 27.1137 25.1394 27.0108 25.1394C26.8052 25.1394 26.6064 25.1394 26.5035 25.1394C26.2979 25.1394 26.099 25.1394 25.9962 25.1394C25.9962 25.1394 25.9962 25.1394 25.8934 25.1394C25.6877 25.1394 25.5917 25.1394 25.3861 25.1394H25.2832C25.0776 25.1394 24.9816 25.1393 24.7759 25.0448H24.6731C24.4674 25.0448 24.3714 25.0448 24.1658 24.9502C23.9601 24.9502 23.8641 24.8557 23.6584 24.8557C23.4528 24.8557 23.3568 24.7611 23.1511 24.7611H23.0483C22.8426 24.7611 22.7466 24.6666 22.6438 24.6666H22.541C22.4381 24.6666 22.2393 24.572 22.1365 24.572C22.1365 24.572 22.1365 24.572 22.0337 24.572C21.9308 24.4774 21.732 24.4775 21.6292 24.3892C21.5263 24.2946 21.3275 24.2946 21.2247 24.2064C21.2247 24.2064 21.2247 24.2064 21.1219 24.2064C21.019 24.1118 20.8202 24.1118 20.7174 24.0236C20.7174 24.0236 20.7174 24.0236 20.6145 24.0236C20.5117 23.929 20.4089 23.929 20.2101 23.8408C20.2101 23.8408 20.2101 23.8408 20.1072 23.8408C20.0044 23.7462 19.9016 23.7462 19.7027 23.6579C19.5999 23.5634 19.4971 23.4751 19.4011 23.4751C19.2983 23.3806 19.1954 23.2923 19.0994 23.1978C18.9966 23.1032 18.8938 23.015 18.7978 22.9204C18.5921 23.3806 18.3933 23.8408 18.3933 24.3009C18.3933 24.9439 18.695 25.5869 19.0994 26.1416C19.0994 26.1416 19.0994 26.1417 19.2023 26.2362C20.4157 27.7113 23.0483 28.7199 25.8865 28.9027C25.9894 28.9027 25.9894 28.9027 26.0922 28.9027H26.195C26.2979 28.9027 26.4007 28.9027 26.5995 28.9027C26.8052 28.9027 26.8052 28.9027 27.004 28.9027H27.1068C27.2097 28.9027 27.2097 28.9027 27.3125 28.9027C30.1439 28.7199 32.7764 27.7996 33.9967 26.2362C33.9967 26.2362 33.9967 26.2362 34.0996 26.1416C34.6069 25.5869 34.8057 24.9439 34.8057 24.3009C34.6137 23.7462 34.4149 23.286 34.2093 22.9204Z" fill="#0348D9"/>
<path d="M33.9076 32.3957C33.8047 32.4902 33.7019 32.5785 33.6059 32.6731L33.5031 32.7676C33.4003 32.7676 33.4003 32.8622 33.2974 32.8622C33.1946 32.8622 33.1946 32.9567 33.0918 32.9567C33.0918 32.9567 32.9889 32.9567 32.9889 33.0513C32.8861 33.0513 32.7833 33.1458 32.7833 33.1458C32.5776 33.2404 32.3788 33.3287 32.1731 33.4232C32.0703 33.4232 32.0703 33.5178 31.9674 33.5178C31.8646 33.5178 31.7618 33.6124 31.7618 33.6124C31.6589 33.6124 31.6589 33.7069 31.5561 33.7069C31.4533 33.7069 31.4533 33.8015 31.3504 33.8015C31.2476 33.8015 31.1448 33.896 31.0488 33.896C30.9459 33.896 30.9459 33.896 30.8431 33.9906C30.7403 34.0851 30.5415 34.0851 30.4386 34.0851H30.3358C30.233 34.0851 30.0341 34.1797 29.9313 34.1797H29.8285C29.7256 34.1797 29.6228 34.2742 29.424 34.2742H29.3212C29.2183 34.2742 29.0195 34.3688 28.9167 34.3688C28.9167 34.3688 28.9167 34.3688 28.8138 34.3688C28.6082 34.3688 28.5122 34.4634 28.3065 34.4634H28.2037C28.1009 34.4634 27.902 34.4634 27.7992 34.4634C27.6964 34.4634 27.6964 34.4634 27.5935 34.4634C27.4907 34.4634 27.2919 34.4634 27.1891 34.4634C27.0862 34.4634 27.0862 34.4634 26.9834 34.4634C26.7777 34.4634 26.5789 34.4634 26.4761 34.4634C26.2704 34.4634 26.0716 34.4634 25.9688 34.4634C25.8659 34.4634 25.8659 34.4634 25.7631 34.4634C25.6602 34.4634 25.4614 34.4634 25.3586 34.4634C25.2558 34.4634 25.2558 34.4634 25.1529 34.4634C25.0501 34.4634 24.8513 34.4634 24.7484 34.4634H24.6456C24.4399 34.4634 24.2411 34.4633 24.1383 34.3688C23.9326 34.3688 23.8367 34.2742 23.631 34.2742H23.5281C23.4253 34.2742 23.2265 34.1797 23.1237 34.1797H23.0208C22.918 34.1797 22.7192 34.0851 22.6163 34.0851C22.6163 34.0851 22.6163 34.0851 22.5135 34.0851C22.3078 34.0851 22.2119 33.9906 22.0062 33.9906C21.9034 33.9906 21.9034 33.9906 21.8005 33.896C21.6977 33.896 21.5949 33.8015 21.4989 33.8015C21.396 33.8015 21.396 33.7069 21.2932 33.7069C21.1904 33.7069 21.1904 33.6124 21.0875 33.6124C20.9847 33.6124 20.9847 33.5178 20.8819 33.5178C20.779 33.5178 20.779 33.4232 20.6762 33.4232C20.4705 33.3287 20.3746 33.2404 20.1689 33.1458H20.0661C19.9632 33.1458 19.8604 33.0513 19.8604 33.0513C19.8604 33.0513 19.7575 33.0513 19.7575 32.9567C19.6547 32.9567 19.6547 32.8622 19.5519 32.8622C19.449 32.8622 19.449 32.7676 19.3462 32.7676L19.2434 32.6731C19.1405 32.5785 19.0377 32.4903 18.9417 32.4903C18.8389 32.3957 18.7361 32.3074 18.6401 32.2129C18.4344 32.6731 18.2356 33.1332 18.2356 33.5934C18.2356 34.2364 18.5372 34.8794 18.9417 35.4341C18.9417 35.4341 18.9417 35.4341 19.0446 35.5287C20.258 37.0038 22.8906 38.0124 25.7288 38.1952C25.8316 38.1952 25.8316 38.1952 25.9345 38.1952H26.0373C26.1401 38.1952 26.243 38.1952 26.4418 38.1952C26.6475 38.1952 26.6475 38.1952 26.8463 38.1952H26.9491C27.0519 38.1952 27.0519 38.1952 27.1548 38.1952C29.9862 38.0124 32.6187 37.092 33.839 35.5287C33.839 35.5287 33.839 35.5287 33.9419 35.4341C34.4492 34.8794 34.648 34.2364 34.648 33.5934C34.648 33.1332 34.5452 32.6731 34.2435 32.2129C34.1132 32.2129 34.0104 32.3011 33.9076 32.3957Z" fill="#0348D9"/>
<path d="M35.1208 40.313C35.2237 40.4076 35.2237 40.4958 35.3265 40.5903C35.4294 40.4958 35.4294 40.4076 35.5322 40.313C35.4294 40.2185 35.4294 40.1302 35.3265 40.0356C35.2237 40.1239 35.1208 40.2185 35.1208 40.313Z" fill="#0348D9"/>
<path d="M33.9076 27.7936C33.8047 27.8882 33.7019 27.9764 33.6059 28.071L33.5031 28.1656C33.4003 28.1656 33.4003 28.2601 33.2974 28.2601C33.1946 28.2601 33.1946 28.3547 33.0918 28.3547C33.0918 28.3547 32.9889 28.3547 32.9889 28.4493C32.8861 28.4493 32.7833 28.5438 32.7833 28.5438C32.5776 28.6383 32.3788 28.7266 32.1731 28.8212C32.0703 28.8212 32.0703 28.9157 31.9674 28.9157C31.8646 28.9157 31.7618 29.0103 31.7618 29.0103C31.6589 29.0103 31.6589 29.1048 31.5561 29.1048C31.4533 29.1048 31.4533 29.1994 31.3504 29.1994C31.2476 29.1994 31.1448 29.2939 31.0488 29.2939C30.9459 29.2939 30.9459 29.294 30.8431 29.3885C30.7403 29.4831 30.5415 29.483 30.4386 29.483H30.3358C30.233 29.483 30.0341 29.5776 29.9313 29.5776H29.8285C29.7256 29.5776 29.6228 29.6722 29.424 29.6722H29.3212C29.2183 29.6722 29.0195 29.7667 28.9167 29.7667C28.9167 29.7667 28.9167 29.7667 28.8138 29.7667C28.6082 29.7667 28.5122 29.8613 28.3065 29.8613H28.2037C28.1009 29.8613 27.902 29.8613 27.7992 29.8613C27.6964 29.8613 27.6964 29.8613 27.5935 29.8613C27.4907 29.8613 27.2919 29.8613 27.1891 29.8613C27.0862 29.8613 27.0862 29.8613 26.9834 29.8613C26.7777 29.8613 26.5789 29.8613 26.4761 29.8613C26.2704 29.8613 26.0716 29.8613 25.9688 29.8613C25.8659 29.8613 25.8659 29.8613 25.7631 29.8613C25.6602 29.8613 25.4614 29.8613 25.3586 29.8613C25.2558 29.8613 25.2558 29.8613 25.1529 29.8613C25.0501 29.8613 24.8513 29.8613 24.7484 29.8613H24.6456C24.4399 29.8613 24.2411 29.8613 24.1383 29.7667C23.9326 29.7667 23.8367 29.6722 23.631 29.6722H23.5281C23.4253 29.6722 23.2265 29.5776 23.1237 29.5776H23.0208C22.918 29.5776 22.7192 29.483 22.6163 29.483C22.6163 29.483 22.6163 29.483 22.5135 29.483C22.3078 29.483 22.2119 29.3885 22.0062 29.3885C21.9034 29.3885 21.9034 29.3885 21.8005 29.2939C21.6977 29.2939 21.5949 29.1994 21.4989 29.1994C21.396 29.1994 21.396 29.1048 21.2932 29.1048C21.1904 29.1048 21.1904 29.0103 21.0875 29.0103C20.9847 29.0103 20.9847 28.9157 20.8819 28.9157C20.779 28.9157 20.779 28.8212 20.6762 28.8212C20.4705 28.7266 20.3746 28.6383 20.1689 28.5438H20.0661C19.9632 28.5438 19.8604 28.4493 19.8604 28.4493C19.8604 28.4493 19.7575 28.4492 19.7575 28.3547C19.6547 28.3547 19.6547 28.2601 19.5519 28.2601C19.449 28.2601 19.449 28.1656 19.3462 28.1656L19.2434 28.071C19.1405 27.9764 19.0377 27.8882 18.9417 27.8882C18.8389 27.7937 18.7361 27.7054 18.6401 27.6108C18.4344 28.071 18.2356 28.5312 18.2356 28.9914C18.2356 29.6344 18.5372 30.2773 18.9417 30.8321C18.9417 30.8321 18.9417 30.8321 19.0446 30.9266C20.258 32.4017 22.8906 33.4103 25.7288 33.5931C25.8316 33.5931 25.8316 33.5931 25.9345 33.5931H26.0373C26.1401 33.5931 26.243 33.5931 26.4418 33.5931C26.6475 33.5931 26.6475 33.5931 26.8463 33.5931H26.9491C27.0519 33.5931 27.0519 33.5931 27.1548 33.5931C29.9862 33.4103 32.6187 32.49 33.839 30.9266C33.839 30.9266 33.839 30.9266 33.9419 30.8321C34.4492 30.2773 34.648 29.6344 34.648 28.9914C34.648 28.5312 34.5452 28.071 34.2435 27.6108C34.1132 27.6108 34.0104 27.7054 33.9076 27.7936Z" fill="#0348D9"/>
<path d="M35.1208 44.9082C35.2237 45.0028 35.2237 45.091 35.3265 45.1856C35.4294 45.091 35.4294 45.0028 35.5322 44.9082C35.4294 44.8137 35.4294 44.7254 35.3265 44.6309C35.2237 44.7254 35.1208 44.82 35.1208 44.9082Z" fill="#0348D9"/>
</svg>
