<svg width="53" height="52" viewBox="0 0 53 52" fill="none" xmlns="http://www.w3.org/2000/svg">
<path d="M26.0083 2.90576C25.7159 2.90576 25.5166 3.09813 25.5166 3.2905C25.5166 3.39001 25.5166 3.48288 25.6163 3.58238C25.7159 3.68188 25.8156 3.68188 26.0083 3.77475V2.90576Z" fill="#0348D9"/>
<path d="M26.7991 5.32702C26.7991 5.22752 26.7991 5.13465 26.6994 5.03514C26.5997 4.93564 26.5001 4.93564 26.3074 4.84277V5.61889C26.6994 5.71176 26.7991 5.51939 26.7991 5.32702Z" fill="#0348D9"/>
<path d="M51.6163 30.0166C50.4402 28.8557 48.5731 28.8557 47.397 30.0166L35.9219 41.2537C35.7226 41.6385 35.5299 42.0299 35.1379 42.4146C34.3538 43.2836 33.2708 43.675 32.0947 43.675L19.2375 43.0912C18.9452 43.0912 18.6462 42.7993 18.6462 42.4146C18.6462 42.1227 18.9385 41.8308 19.3306 41.8308L32.1811 42.4146C32.9651 42.4146 33.7492 42.1227 34.2409 41.5456C34.4402 41.3532 34.5332 41.1609 34.6329 40.9619C34.6329 40.7695 34.7326 40.67 34.8322 40.5771C34.9319 40.1924 35.0316 39.801 34.9319 39.4163C34.8322 38.2554 33.8488 37.1874 32.5731 37.0945L26.8854 36.5108V30.408H31.1047C33.9485 30.408 36.3073 28.2786 36.5997 25.5655H32.3804C29.7292 25.5655 27.4767 27.5025 26.9851 30.0166V18.2023H31.2043C34.0482 18.2023 36.407 16.073 36.6993 13.3599H32.4801C29.8289 13.3599 27.5764 15.2968 27.0847 17.8109V8.42454C29.1445 8.13267 30.7126 6.39469 30.7126 4.25871C30.7126 1.93698 28.7525 0 26.3937 0C24.0415 0 22.0748 1.93698 22.0748 4.25871C22.0748 6.38806 23.7425 8.22554 25.8023 8.42454V25.5655C25.1179 23.4362 22.9585 21.791 20.5997 21.791H16.3804C16.6728 24.5041 19.0316 26.6335 21.8754 26.6335H25.8954V36.2189L9.80233 34.4743L0.5 43.476L9.13123 52L11.8754 50.1625L6.77243 45.1277C6.57309 44.9353 6.57309 44.5439 6.77243 44.2587C6.97176 44.0663 7.36379 44.0663 7.65615 44.2587L13.1512 49.6849L35.1312 50.461L51.6163 34.1957C52.2076 33.6119 52.5 32.9353 52.5 32.0663C52.5 31.1774 52.108 30.6003 51.6163 30.0166ZM25.0316 6.48756C24.7392 6.38806 24.4402 6.29519 24.2475 6.10282L24.7392 5.13433L24.8389 5.23383C24.9385 5.33333 25.0382 5.33333 25.1312 5.4262C25.2309 5.52571 25.4236 5.52571 25.5233 5.61857C25.7226 5.71808 25.8156 5.71808 26.015 5.71808V4.84245L25.7226 4.74295C25.5233 4.64345 25.3306 4.64345 25.1312 4.55058C24.9319 4.45108 24.8389 4.35821 24.7392 4.25871C24.6395 4.1592 24.5399 4.06634 24.5399 3.87396C24.4402 3.77446 24.4402 3.58209 24.4402 3.38972C24.4402 3.19735 24.4402 3.00498 24.5399 2.80597C24.6395 2.6136 24.7392 2.5141 24.8322 2.32172C24.9319 2.22222 25.1246 2.12935 25.3239 2.02985C25.5233 1.93035 25.7159 1.93035 25.9153 1.93035V1.26036H26.407V1.93698C26.6993 1.93698 26.9983 2.03648 27.191 2.12935C27.4834 2.22886 27.6827 2.32172 27.8754 2.42123L27.3837 3.29022C27.3837 3.29022 27.2841 3.29022 27.2841 3.19071C27.1844 3.19071 27.1844 3.09121 26.9917 3.09121C26.7924 3.09121 26.7924 2.99171 26.6993 2.99171C26.5997 2.99171 26.5 2.89221 26.3073 2.89221V3.76119L26.5066 3.8607C26.706 3.9602 26.8987 3.9602 27.098 4.05307C27.2973 4.15257 27.3904 4.24544 27.5897 4.34494C27.6894 4.44444 27.789 4.53731 27.8821 4.72969C27.9817 4.92206 27.9817 5.02156 27.9817 5.21393C27.9817 5.5058 27.9817 5.69818 27.8821 5.89055C27.7824 6.08292 27.6827 6.18242 27.49 6.27529C27.2907 6.37479 27.1977 6.46766 26.9983 6.56716C26.799 6.66667 26.6063 6.66667 26.407 6.66667V7.44279H25.9153V6.66667C25.6163 6.58706 25.3239 6.58706 25.0316 6.48756Z" fill="#0348D9"/>
<path d="M8.83898 11.0381C9.5433 11.0381 10.1147 11.6019 10.1147 12.2985C10.1147 12.995 9.5433 13.5588 8.83898 13.5588C8.13466 13.5588 7.56323 12.995 7.56323 12.2985C7.56323 11.6019 8.13466 11.0381 8.83898 11.0381Z" fill="#0348D9"/>
<path d="M17.9684 13.9438C18.6727 13.9438 19.2441 14.5077 19.2441 15.2042C19.2441 15.9007 18.6727 16.4646 17.9684 16.4646C17.2641 16.4646 16.6926 15.9007 16.6926 15.2042C16.6926 14.5077 17.2641 13.9438 17.9684 13.9438Z" fill="#0348D9"/>
<path d="M42.4933 4.25879C43.1976 4.25879 43.769 4.82264 43.769 5.51915C43.769 6.21567 43.1976 6.77952 42.4933 6.77952C41.789 6.77952 41.2175 6.21567 41.2175 5.51915C41.2175 4.82264 41.789 4.25879 42.4933 4.25879Z" fill="#0348D9"/>
<path d="M47.4037 17.6255C48.108 17.6255 48.6794 18.1893 48.6794 18.8859C48.6794 19.5824 48.108 20.1462 47.4037 20.1462C46.6994 20.1462 46.1279 19.5824 46.1279 18.8859C46.1279 18.1893 46.6927 17.6255 47.4037 17.6255Z" fill="#0348D9"/>
<path d="M38.8653 20.0464C39.5697 20.0464 40.1411 20.6102 40.1411 21.3068C40.1411 22.0033 39.5697 22.5671 38.8653 22.5671C38.161 22.5671 37.5896 22.0033 37.5896 21.3068C37.5896 20.6102 38.161 20.0464 38.8653 20.0464Z" fill="#0348D9"/>
</svg>
