<svg width="53" height="52" viewBox="0 0 53 52" fill="none" xmlns="http://www.w3.org/2000/svg">
<path d="M37.1875 11.1949C37.294 13.046 38.444 14.6181 40.1194 15.4485C40.9571 15.9113 42.0077 16.1902 43.1577 16.1902C43.4701 16.1902 43.7895 16.1902 44.2084 16.0951C47.0409 15.6323 49.1351 13.5024 49.1351 11.0048C49.1351 8.13948 46.5156 5.82568 43.2642 5.82568C40.0129 5.82568 37.3934 8.13948 37.3934 11.0048C37.1875 11.0111 37.1875 11.0999 37.1875 11.1949ZM42.5401 11.3788C42.2278 11.2837 42.0148 11.1949 41.8089 11.0999C41.596 11.0048 41.3901 10.916 41.2836 10.8209C41.1771 10.7258 41.0706 10.542 40.9713 10.4533C40.8648 10.3582 40.8648 10.0856 40.8648 9.89542C40.8648 9.6165 40.8648 9.43266 41.0777 9.15373C41.1842 8.9699 41.2907 8.78606 41.4966 8.59589C41.7095 8.41205 41.9154 8.31697 42.1284 8.22822C42.3414 8.13314 42.6537 8.04438 42.8596 8.04438V7.30272H43.4914V8.04438C43.9102 8.04438 44.2226 8.13948 44.542 8.22822C44.8544 8.32331 45.1738 8.50714 45.3797 8.59589L44.7479 9.6165L44.6414 9.52142C44.5349 9.42633 44.4285 9.42632 44.3291 9.33757C44.2226 9.24249 44.0167 9.24248 43.9102 9.15373C43.6973 9.05865 43.5979 9.05865 43.3849 9.05865V10.0792L43.6973 10.1743C44.0096 10.2694 44.2226 10.3582 44.5349 10.4533C44.7479 10.5483 44.9538 10.6371 45.1667 10.7322C45.3797 10.8273 45.4791 11.0111 45.5856 11.1949C45.6921 11.3788 45.6921 11.5626 45.6921 11.8415C45.6921 12.1204 45.5856 12.3994 45.4791 12.5832C45.3726 12.767 45.1667 12.9509 45.0603 13.046C44.8473 13.1411 44.6414 13.2298 44.4285 13.3249C44.2155 13.42 43.9031 13.42 43.5908 13.42V14.3455H42.959V13.42C42.5401 13.42 42.1213 13.3249 41.8089 13.2361C41.3901 13.1411 41.0777 12.9572 40.7583 12.7734L41.3901 11.664C41.3901 11.664 41.4966 11.7591 41.6031 11.7591C41.7095 11.8542 41.816 11.8542 42.0219 11.943C42.2349 12.038 42.3343 12.038 42.5472 12.1268C42.7602 12.2219 42.9661 12.2219 43.179 12.2219V11.2013L42.5401 11.3788Z" fill="#0348D9"/>
<path d="M28.5978 26.3709C31.8491 26.3709 34.4686 24.0571 34.4686 21.1854C34.4686 18.3201 31.8491 16.0063 28.5978 16.0063C25.3465 16.0063 22.7269 18.3201 22.7269 21.1854C22.7269 24.0571 25.3465 26.3709 28.5978 26.3709ZM28.0725 21.6482C27.7601 21.5531 27.5471 21.4643 27.3413 21.3693C27.1283 21.2742 26.9224 21.1854 26.8159 21.0904C26.7095 20.9953 26.603 20.8114 26.5036 20.7227C26.3971 20.5388 26.3971 20.355 26.3971 20.1648C26.3971 19.8859 26.3971 19.7021 26.6101 19.4232C26.7166 19.2393 26.823 19.0555 27.0289 18.8653C27.2419 18.6815 27.4477 18.5864 27.6607 18.4976C27.8737 18.4025 28.186 18.3138 28.3919 18.3138V17.5721H29.0237V18.3138C29.4426 18.3138 29.7549 18.4089 30.0744 18.4976C30.3867 18.5927 30.7062 18.7766 30.912 18.8653L30.2802 19.9747L30.1738 19.8796C30.0673 19.7845 29.9608 19.7845 29.8614 19.6957C29.7549 19.6006 29.549 19.6006 29.4426 19.5119C29.2296 19.4168 29.1302 19.4168 28.9172 19.4168V20.4374L29.2296 20.5325C29.5419 20.6276 29.7549 20.7163 30.0673 20.8114C30.2802 20.9065 30.4861 20.9953 30.6991 21.0904C30.912 21.1854 31.0114 21.3693 31.1179 21.5531C31.2244 21.7369 31.2244 21.9208 31.2244 22.1997C31.2244 22.4786 31.1179 22.7575 31.0114 22.9414C30.9049 23.1252 30.6991 23.3091 30.5926 23.4041C30.3796 23.4992 30.1738 23.588 29.9608 23.6831C29.7478 23.7781 29.4355 23.7781 29.1231 23.7781V24.7037H28.4913V23.7781C28.0725 23.7781 27.6536 23.6831 27.3413 23.5943C26.9224 23.4992 26.6101 23.3154 26.2906 23.1315L26.9224 22.0222C26.9224 22.0222 27.0289 22.1173 27.1354 22.1173C27.2419 22.2124 27.3484 22.2124 27.5542 22.3011C27.7672 22.3962 27.8666 22.3962 28.0796 22.485C28.2925 22.58 28.4984 22.58 28.7114 22.58V21.5594L28.0725 21.6482Z" fill="#0348D9"/>
<path d="M28.4913 19.4297C28.0725 19.4297 27.8595 19.6135 27.8595 19.8925C27.8595 19.9875 27.8595 20.0763 27.966 20.1714C28.0725 20.2665 28.1789 20.3552 28.3848 20.3552V19.4297H28.4913Z" fill="#0348D9"/>
<path d="M29.5348 22.3895C29.5348 22.2944 29.4283 22.1106 29.3218 22.1106C29.2153 22.0155 29.0095 21.9268 28.7965 21.9268V22.8523C29.3289 22.7635 29.5348 22.6684 29.5348 22.3895Z" fill="#0348D9"/>
<path d="M42.959 9.24854C42.5401 9.24854 42.3271 9.43238 42.3271 9.7113C42.3271 9.80639 42.3271 9.89514 42.4336 9.99022C42.5401 10.0853 42.6466 10.1741 42.8525 10.1741V9.24854H42.959Z" fill="#0348D9"/>
<path d="M6.26438 3.42285C5.84554 3.42285 5.63257 3.60669 5.63257 3.88562C5.63257 3.9807 5.63257 4.06945 5.73905 4.16454C5.84554 4.25963 5.95202 4.34838 6.15789 4.34838C6.26438 4.43713 6.26438 3.42285 6.26438 3.42285Z" fill="#0348D9"/>
<path d="M7.31495 6.38366C7.31495 6.28858 7.20847 6.10474 7.10198 6.10474C6.9955 6.00965 6.78963 5.9209 6.57666 5.9209V6.84643C7.10198 6.75134 7.31495 6.66259 7.31495 6.38366Z" fill="#0348D9"/>
<path d="M12.2417 5.17909C12.2417 2.30746 9.62218 0 6.37085 0C3.11952 0 0.5 2.3138 0.5 5.17909C0.5 8.04438 3.11952 10.3582 6.37085 10.3582C9.62218 10.3582 12.2417 8.05072 12.2417 5.17909ZM4.90136 7.67671C4.48253 7.58163 4.17017 7.39778 3.85072 7.21395L4.48253 6.1046C4.48253 6.1046 4.58901 6.19968 4.69549 6.19968C4.80198 6.29477 4.90846 6.29477 5.11433 6.38352C5.3273 6.47861 5.42669 6.47862 5.63966 6.56736C5.85263 6.66245 6.0585 6.66245 6.27147 6.66245V5.64183L5.85263 5.54675C5.54027 5.45166 5.3273 5.36291 5.12143 5.26783C4.90846 5.17274 4.70259 5.08399 4.59611 4.9889C4.48962 4.89382 4.38314 4.70999 4.28375 4.62124C4.17727 4.43741 4.17727 4.25357 4.17727 4.06339C4.17727 3.78447 4.17727 3.60063 4.39024 3.32171C4.49672 3.13787 4.60321 2.95405 4.80908 2.76388C5.02205 2.58004 5.22792 2.48494 5.44089 2.3962C5.65386 2.30111 5.96621 2.21236 6.17208 2.21236V1.47069H6.80389V2.21236C7.22273 2.21236 7.53508 2.30745 7.85454 2.3962C8.16689 2.49128 8.48635 2.67513 8.69222 2.76388L8.06041 3.78447L7.95392 3.68939C7.84744 3.5943 7.74096 3.59429 7.64157 3.50555C7.53509 3.41046 7.32921 3.41045 7.22273 3.32171C7.00976 3.22662 6.91037 3.22662 6.69741 3.22662V4.24723L7.00976 4.34232C7.32212 4.4374 7.53509 4.52615 7.84744 4.62124C8.06041 4.71633 8.26628 4.80508 8.47925 4.90017C8.69222 4.99525 8.7916 5.17908 8.89809 5.36291C9.00457 5.54675 9.00457 5.73059 9.00457 6.00952C9.00457 6.28844 8.89809 6.56735 8.7916 6.75118C8.68512 6.93502 8.47925 7.11886 8.37276 7.21395C8.15979 7.30904 7.95392 7.39779 7.74096 7.49287C7.52799 7.58796 7.21563 7.58796 6.90328 7.58796V8.51347H6.26437V7.58796C5.73904 7.86054 5.3202 7.7718 4.90136 7.67671Z" fill="#0348D9"/>
<path d="M44.0026 12.1205C44.0026 12.0254 43.8961 11.8415 43.7896 11.8415C43.6831 11.7464 43.4773 11.6577 43.2643 11.6577V12.5832C43.7967 12.5832 44.0026 12.3994 44.0026 12.1205Z" fill="#0348D9"/>
<path d="M50.3988 26.3711C49.9799 26.3711 49.4546 26.5549 49.1422 26.7388L33.631 37.8449L49.1422 48.9511C49.5611 49.23 49.9799 49.3188 50.3988 49.3188C50.9241 49.3188 51.4494 49.135 51.8683 48.761C52.2871 48.3933 52.5001 47.9305 52.5001 47.4678V28.127C52.493 27.0177 51.4494 26.3711 50.3988 26.3711Z" fill="#0348D9"/>
<path d="M22.6204 37.8449L7.10206 26.7388C6.68322 26.4598 6.26438 26.3711 5.84554 26.3711C4.79489 26.3711 3.75134 27.1128 3.75134 28.2221V47.5628C3.75134 48.6722 4.80199 49.4139 5.84554 49.4139C6.26438 49.4139 6.7897 49.23 7.10206 49.0462L8.67803 47.9369L13.4982 44.5137L22.6204 37.8449Z" fill="#0348D9"/>
<path d="M5.32019 23.1312C5.32019 23.6891 5.63255 24.2406 6.05139 24.5195L7.83323 25.8127L23.5575 37.1027L27.54 34.2374C27.54 34.2374 27.6465 34.1423 27.753 34.1423C27.9659 34.0472 28.0653 34.0472 28.2783 34.1423C28.2783 34.1423 28.3848 34.1423 28.3848 34.2374L30.2731 35.5306L32.4738 37.1027L50.0863 24.5195C50.6117 24.1518 50.8175 23.6891 50.8175 23.1312C50.8175 22.5734 50.5052 22.0219 50.0863 21.743L43.9031 17.3943C43.7966 17.3943 43.6902 17.3943 43.6902 17.3943H43.5837C43.4772 17.3943 43.4772 17.3943 43.3707 17.3943H43.2642C43.1577 17.3943 43.0512 17.3943 42.9519 17.3943C42.8454 17.3943 42.7389 17.3943 42.6395 17.3943H42.533C42.4265 17.3943 42.4265 17.3943 42.3201 17.3943H42.2136C42.1071 17.3943 42.1071 17.3943 42.0006 17.3943H41.8941C41.7876 17.3943 41.7876 17.3943 41.6811 17.3943H41.5747C41.4682 17.3943 41.4682 17.3943 41.3617 17.3943H41.2552C41.1487 17.3943 41.1487 17.3943 41.0422 17.3943H40.9641C40.8577 17.3943 40.8577 17.3943 40.7512 17.2992C40.7512 17.2992 40.6447 17.2992 40.6447 17.2041C40.5382 17.2041 40.5382 17.2041 40.4317 17.109C40.4317 17.109 40.3252 17.109 40.3252 17.0139C40.2188 17.0139 40.2188 17.014 40.1123 16.9189C40.1123 16.9189 40.0058 16.9189 40.0058 16.8238C40.0058 16.8238 39.8993 16.8238 39.8993 16.7287C39.8993 16.7287 39.7928 16.7287 39.7928 16.6336L39.6863 16.5385L39.5798 16.4434L39.4734 16.3483L39.3669 16.2533L39.2604 16.1582L39.1539 16.0631L39.0474 15.968L38.9409 15.8729L38.8345 15.7778L38.728 15.6827L38.6215 15.5876L38.515 15.4926L38.4085 15.3975L38.302 15.3024L38.1955 15.2073L38.0891 15.1122L37.9826 15.0171L37.8761 14.922L37.7696 14.827L37.6631 14.7319L37.5566 14.6368L37.4502 14.5417L37.3437 14.4466L37.2372 14.3515L37.1307 14.2564L37.0242 14.1613C37.0242 14.1613 37.0242 14.0662 36.9177 14.0662C36.9177 14.0662 36.9177 13.9712 36.8112 13.9712C36.8112 13.9712 36.8112 13.8761 36.7048 13.8761C36.7048 13.8761 36.7048 13.781 36.5983 13.6922C36.5983 13.5972 36.5983 13.5971 36.4918 13.5084C36.4918 13.4133 36.4918 13.4133 36.3853 13.3246C36.3853 13.2295 36.3853 13.2295 36.3853 13.1407C36.3853 13.0457 36.3853 13.0456 36.3853 12.9569C36.3853 12.8618 36.3853 12.8618 36.3853 12.7731C36.3853 12.678 36.3853 12.678 36.3853 12.5892C36.3853 12.4941 36.3853 12.4941 36.3853 12.4054C36.3853 12.3103 36.3853 12.3103 36.3853 12.2216C36.3853 12.1265 36.3853 12.1265 36.3853 12.0377C36.3853 11.949 36.3853 11.9426 36.3853 11.8539C36.3853 11.7588 36.3853 11.7588 36.3853 11.6701C36.3853 11.575 36.3853 11.575 36.3853 11.4862L30.0956 7.32141C29.5703 6.95374 28.8391 6.6748 28.1008 6.6748C27.3625 6.6748 26.6313 6.85865 26.106 7.32141L6.05848 21.6479C5.63964 22.0219 5.32019 22.5734 5.32019 23.1312ZM28.5977 14.8016C32.5803 14.8016 35.8316 17.6669 35.8316 21.1851C35.8316 24.7033 32.5803 27.5686 28.5977 27.5686C24.6152 27.5686 21.3639 24.697 21.3639 21.1851C21.3639 17.6732 24.7146 14.8016 28.5977 14.8016Z" fill="#0348D9"/>
<path d="M46.7285 48.7673L32.1543 38.3077L28.0653 35.4424L24.0828 38.3077L13.8106 45.6167L9.4092 48.7609C8.57152 49.4075 8.46503 50.2443 8.77739 50.7958C8.99036 51.3536 9.61507 52.0002 10.7722 52.0002H45.3655C46.4162 52.0002 47.1474 51.3536 47.3603 50.7958C47.6727 50.2443 47.5662 49.3188 46.7285 48.7673ZM25.9711 50.3394H23.3516V48.0256H25.9711V50.3394ZM29.9536 50.3394H27.3341V48.0256H29.9536V50.3394ZM33.8368 50.3394H31.2173V48.0256H33.8368V50.3394Z" fill="#0348D9"/>
</svg>
