<svg width="53" height="58" viewBox="0 0 53 58" fill="none" xmlns="http://www.w3.org/2000/svg">
<path d="M26.5629 5.86133C25.9032 5.86133 25.6882 6.17059 25.6882 6.57827C25.6882 6.78211 25.7994 6.98596 25.9106 7.09139C26.0218 7.19683 26.2368 7.29523 26.5703 7.40067V5.86133H26.5629Z" fill="#0348D9"/>
<path d="M43.197 42.4888H45.2799V37.3577H27.3264V27.0954H32.0335C35.2061 27.0954 37.8376 24.8392 38.1638 21.9643H33.4567C30.499 21.9643 27.9861 23.9113 27.4376 26.4769V16.7277C32.0335 16.4185 35.7546 12.8267 35.7546 8.41953C35.7546 3.80151 31.8111 0.111328 26.8891 0.111328C21.9596 0.111328 18.0235 3.80854 18.0235 8.41953C18.0235 12.7283 21.5297 16.3201 26.1256 16.7277V30.2725C25.5771 27.707 23.0642 25.76 20.1065 25.76H15.3994C15.7256 28.6348 18.3571 30.8911 21.5297 30.8911H25.9106V37.3577H6.86743V42.4888H8.95039H43.197ZM24.5912 12.426C24.0426 12.2222 23.4941 12.0184 23.0567 11.7091L24.0426 9.9659C24.0426 9.9659 24.1538 10.0713 24.3688 10.1698C24.48 10.2752 24.6949 10.3736 24.9173 10.479C25.1397 10.5845 25.4658 10.6829 25.6808 10.7883C26.007 10.8937 26.2293 10.9921 26.5555 10.9921V9.34735L25.8958 9.24192C25.4585 9.13649 25.1323 9.03809 24.7987 8.83425C24.4725 8.72882 24.2502 8.52497 24.0352 8.32113C23.8128 8.11729 23.709 7.91345 23.5978 7.70258C23.4867 7.49874 23.4867 7.18948 23.4867 6.88021C23.4867 6.47253 23.5979 6.05781 23.7091 5.74854C23.8202 5.43926 24.0352 5.13 24.3688 4.92616C24.5912 4.72232 24.9173 4.51847 25.3546 4.41304C25.6808 4.30761 26.1181 4.2092 26.5555 4.10377V2.8737H27.4302V4.10377C27.9787 4.10377 28.5273 4.30761 28.9646 4.41304C29.5132 4.61688 29.8393 4.82072 30.2767 5.03159L29.1796 6.67636C29.1796 6.67636 29.0684 6.57092 28.9572 6.47252C28.846 6.36708 28.6311 6.36708 28.5199 6.26867C28.2975 6.16324 28.0825 6.06485 27.8601 6.06485C27.6378 5.95941 27.4228 5.95941 27.0966 5.861V7.50577L27.534 7.6112C27.9713 7.71664 28.4087 7.81505 28.7348 8.01889C29.061 8.12433 29.3945 8.32815 29.6095 8.53199C29.8319 8.73583 30.0469 8.93969 30.1581 9.24896C30.2693 9.55823 30.3805 9.8675 30.3805 10.2752C30.3805 10.6829 30.2693 11.0976 30.1581 11.4068C29.9357 11.7161 29.7207 12.0254 29.4983 12.2292C29.1722 12.4331 28.8386 12.6369 28.5125 12.7423C28.1863 12.8478 27.7489 12.9462 27.3116 12.9462V14.3801H26.4369V12.9462C25.7994 12.7353 25.2509 12.6299 24.5912 12.426Z" fill="#0348D9"/>
<path d="M28.0975 10.3737C28.0975 10.1698 27.9863 9.96598 27.8751 9.86054C27.6527 9.75511 27.4377 9.6567 27.1116 9.55127V10.9852C27.7639 10.9922 28.0975 10.7813 28.0975 10.3737Z" fill="#0348D9"/>
<path d="M51.7364 56.652H38.49L42.2111 43.8242H9.81032L13.5314 56.652H1.15969C0.833536 56.652 0.5 56.9613 0.5 57.2706C0.5 57.5799 0.826123 57.8891 1.15969 57.8891H51.8402C52.1663 57.8891 52.4999 57.5799 52.4999 57.2706C52.5073 56.9543 52.1737 56.652 51.7364 56.652ZM16.4891 52.1324C16.4891 51.8231 16.8153 51.5139 17.1488 51.5139H39.0385C39.3646 51.5139 39.6982 51.8231 39.6982 52.1324C39.6982 52.4417 39.3721 52.751 39.0385 52.751H17.1488C16.8227 52.751 16.4891 52.4417 16.4891 52.1324Z" fill="#0348D9"/>
<path d="M4.45081 16.9385C5.23655 16.9385 5.87407 17.5359 5.87407 18.274C5.87407 19.012 5.23655 19.6095 4.45081 19.6095C3.66507 19.6095 3.02759 19.012 3.02759 18.274C3.02759 17.5359 3.66507 16.9385 4.45081 16.9385Z" fill="#0348D9"/>
<path d="M2.26433 29.0498C3.05007 29.0498 3.68755 29.6473 3.68755 30.3853C3.68755 31.1233 3.05007 31.7208 2.26433 31.7208C1.47859 31.7208 0.841064 31.1233 0.841064 30.3853C0.841064 29.6473 1.47859 29.0498 2.26433 29.0498Z" fill="#0348D9"/>
<path d="M41.8849 9.76172C42.6706 9.76172 43.3082 10.3592 43.3082 11.0972C43.3082 11.8353 42.6706 12.4327 41.8849 12.4327C41.0991 12.4327 40.4617 11.8353 40.4617 11.0972C40.4617 10.3522 41.0991 9.76172 41.8849 9.76172Z" fill="#0348D9"/>
<path d="M9.04676 9.76172C9.8325 9.76172 10.47 10.3592 10.47 11.0972C10.47 11.8353 9.8325 12.4327 9.04676 12.4327C8.26101 12.4327 7.62354 11.8353 7.62354 11.0972C7.62354 10.3522 8.26101 9.76172 9.04676 9.76172Z" fill="#0348D9"/>
<path d="M37.8375 29.1549C38.6236 29.1549 39.2607 28.557 39.2607 27.8194C39.2607 27.0818 38.6236 26.4839 37.8375 26.4839C37.0515 26.4839 36.4143 27.0818 36.4143 27.8194C36.4143 28.557 37.0515 29.1549 37.8375 29.1549Z" fill="#0348D9"/>
</svg>
