<svg width="72" height="72" viewBox="0 0 72 72" fill="none" xmlns="http://www.w3.org/2000/svg">
<rect width="72" height="72" rx="36" fill="white"/>
<path d="M54.5126 26.3557C54.5205 25.1455 55.4874 24.1785 56.6977 24.1706C57.2546 24.2183 57.7565 24.3142 58.2169 24.7745C58.6669 25.2245 58.8659 25.7263 58.862 26.3349L58.7482 43.2957L46.9632 54.2768L41.3073 54.3125C41.0563 54.3643 40.8533 54.5673 40.8496 54.7701C40.8941 55.0211 41.0968 55.2238 41.2997 55.2202L46.5499 55.1849L46.0803 57.5576L37.1959 57.6131L37.3516 48.1339L46.5894 40.7031L47.2533 40.3415L50.5011 37.6983C51.2099 37.0857 52.2723 37.1295 52.9251 37.6791C53.1759 37.8267 53.327 38.081 53.4747 38.3319C53.4711 38.4316 53.471 38.5347 53.5707 38.6344L53.5754 38.6484C53.6252 38.7981 53.6735 38.943 53.67 39.1397C53.7142 39.6932 53.4593 40.2504 53.0533 40.6565L46.0959 47.0092C45.8929 47.2122 45.8926 47.5148 46.0438 47.6659C46.2431 47.8652 46.5491 47.8615 46.7005 47.7101L53.6612 41.3539C54.2703 40.7448 54.6285 39.9813 54.5845 39.1252C54.5883 38.7229 54.4854 38.4204 54.3894 38.1179L54.5126 26.3557Z" fill="#F37024"/>
<path d="M17.4359 26.3557C17.428 25.1455 16.461 24.1785 15.2508 24.1706C14.6938 24.2183 14.1919 24.3142 13.7316 24.7745C13.2816 25.2245 13.0826 25.7263 13.0865 26.3349L13.2003 43.2957L24.9853 54.2768L30.6412 54.3125C30.8922 54.3643 31.0952 54.5673 31.0988 54.7701C31.0544 55.0211 30.8517 55.2238 30.6488 55.2202L25.3986 55.1849L25.8682 57.5576L34.7526 57.6131L34.5969 48.1339L25.3591 40.7031L24.6952 40.3415L21.4474 37.6983C20.7386 37.0857 19.6762 37.1295 19.0234 37.6791C18.7725 37.8267 18.6215 38.081 18.4738 38.3319C18.4774 38.4316 18.4774 38.5347 18.3778 38.6344L18.3731 38.6484C18.3233 38.7981 18.275 38.943 18.2785 39.1397C18.2343 39.6932 18.4892 40.2504 18.8952 40.6565L25.8526 47.0092C26.0556 47.2122 26.0558 47.5148 25.9047 47.6659C25.7054 47.8652 25.3994 47.8615 25.248 47.7101L18.2872 41.3539C17.6782 40.7448 17.32 39.9813 17.3639 39.1252C17.3602 38.7229 17.4631 38.4204 17.5591 38.1179L17.4359 26.3557Z" fill="#F37024"/>
<path d="M36 10C37.4837 10.0002 38.8076 11.9326 39.6807 14.9609C42.3725 13.4408 44.5943 12.9829 45.5801 13.9688C46.5657 14.9546 46.1058 17.1748 44.5859 19.8662C47.6154 20.7392 49.5484 22.0648 49.5488 23.5488C49.5488 25.0328 47.6159 26.3574 44.5869 27.2305C46.1073 29.9224 46.5666 32.1438 45.5811 33.1299C44.5952 34.1158 42.3737 33.6562 39.6816 32.1357C38.8086 35.1653 37.4841 37.0985 36 37.0986C34.516 37.0986 33.1904 35.1659 32.3174 32.1367C29.6257 33.6568 27.4048 34.1155 26.4189 33.1299C25.4331 32.144 25.8908 29.9224 27.4111 27.2305C24.3826 26.3574 22.4502 25.0326 22.4502 23.5488C22.4506 22.065 24.3831 20.7392 27.4121 19.8662C25.8925 17.175 25.4335 14.9546 26.4189 13.9688C27.4047 12.983 29.6259 13.4411 32.3174 14.9609C33.1904 11.9322 34.5161 10 36 10Z" fill="#F37024"/>
</svg>
