<svg width="72" height="72" viewBox="0 0 72 72" fill="none" xmlns="http://www.w3.org/2000/svg">
<rect width="72" height="72" rx="36" fill="white"/>
<path d="M37.9141 38.5995C37.562 38.4214 37.2216 38.2552 36.7051 38.0771V40.6771C37.9141 40.6771 38.4424 40.3329 38.4424 39.4662C38.4306 38.9438 38.2545 38.7776 37.9141 38.5995Z" fill="#F37024"/>
<path d="M34.0994 32.3671C34.0994 32.7114 34.2754 33.0557 34.4397 33.2337C34.6158 33.4118 35.1323 33.578 35.6488 33.7561V30.978C34.6159 31.1561 34.0994 31.6666 34.0994 32.3671Z" fill="#F37024"/>
<path d="M36 20.9219C27.6777 20.9219 20.7522 27.6771 20.7522 35.9995C20.7522 44.3219 27.5134 51.2552 36 51.2552C44.4984 51.2552 51.2596 44.5 51.2596 35.9995C51.2596 27.689 44.3224 20.9219 36 20.9219ZM41.8926 41.1995C41.5405 41.7219 41.2 42.2442 40.6835 42.5885C40.1671 42.9328 39.6389 43.2771 38.9463 43.4552C38.2538 43.6333 37.5612 43.7995 36.8686 43.7995V46.3995H35.3074V43.7995C34.2628 43.6214 33.2299 43.4552 32.3612 43.1109C31.3165 42.7666 30.4596 42.4223 29.7553 41.9L31.3165 38.7776C31.3165 38.7776 31.4926 38.9557 31.833 39.1219C32.0091 39.3 32.3494 39.4662 32.8776 39.6442C33.2298 39.8223 33.7463 39.9885 34.2628 40.1666C34.7793 40.3447 35.3074 40.5109 35.8239 40.5109V37.5666L34.7793 37.2223C34.0867 37.0443 33.3941 36.7 32.8776 36.5337C32.3612 36.3557 31.833 36.0114 31.4926 35.6671C31.1404 35.3228 30.9761 34.9785 30.8 34.4561C30.624 33.9337 30.6239 33.5895 30.6239 32.9009C30.6239 32.2123 30.8001 31.5118 30.9644 30.8232C31.3165 30.3009 31.6569 29.7785 32.009 29.268C32.5255 28.9237 33.0537 28.5794 33.5702 28.2232C34.2628 28.0452 34.7792 27.879 35.4718 27.7009V25.4452H36.8569V28.0452C37.7255 28.2232 38.7585 28.3895 39.4628 28.7337C40.3314 29.078 41.0239 29.4223 41.7165 29.7785L40.1553 32.7228C40.1553 32.7228 39.9792 32.5447 39.8032 32.3785C39.6271 32.2004 39.2867 32.0342 38.9346 32.0342C38.5824 31.8561 38.242 31.6899 37.8898 31.5118C37.5377 31.3337 37.0213 31.3337 36.6809 31.1675V34.1118L37.3734 34.2899C38.0659 34.468 38.7585 34.6342 39.451 34.9785C39.9675 35.1566 40.4958 35.5009 41.0122 35.8452C41.3644 36.1895 41.7047 36.7118 42.0569 37.2342C42.2329 37.7566 42.4091 38.4452 42.4091 39.1456C42.2447 39.8105 42.0687 40.6771 41.8926 41.1995Z" fill="#F37024"/>
<path d="M62 36C62 21.611 50.391 10 36 10C21.609 10 10 21.611 10 36C10 50.389 21.609 62 36 62C50.391 62 62 50.389 62 36ZM36 53.3333C26.4686 53.3333 18.6627 45.5333 18.6627 36C18.6627 26.4667 26.4686 18.6667 36 18.6667C45.5314 18.6667 53.3372 26.4667 53.3372 36C53.3372 45.5333 45.5431 53.3333 36 53.3333Z" fill="#F37024"/>
</svg>
