<svg width="72" height="72" viewBox="0 0 72 72" fill="none" xmlns="http://www.w3.org/2000/svg">
<rect width="72" height="72" rx="36" fill="white"/>
<path d="M15.8301 29.3008C16.8322 29.3008 17.8017 29.3008 18.8472 29.3008C18.8472 29.5297 18.8472 29.7423 18.8472 29.9549C18.8472 37.7251 18.8472 45.494 18.8472 53.2642C18.8472 54.1728 18.8905 54.2175 19.7761 54.2175C30.7896 54.2175 41.8016 54.2175 52.8151 54.2175C53.7021 54.2175 53.7278 54.1931 53.7278 53.3143C53.7278 45.5278 53.7278 37.7413 53.7291 29.9535C53.7291 29.7396 53.7481 29.5243 53.7576 29.2954C54.78 29.2954 55.7523 29.2954 56.7638 29.2954C56.7638 38.7502 56.7638 48.1806 56.7638 57.6395C43.1138 57.6395 29.4896 57.6395 15.8301 57.6395C15.8301 48.1901 15.8301 38.761 15.8301 29.3008Z" fill="#F37024"/>
<path d="M46.1697 24.2173C48.3648 24.2173 50.5383 24.2173 52.7428 24.2173C52.7428 32.5711 52.7428 40.9087 52.7428 49.2816C47.4128 49.2816 42.0828 49.2816 36.6919 49.2816C36.6838 49.1312 36.6662 48.9701 36.6662 48.809C36.6648 46.0559 36.6675 43.3016 36.6621 40.5485C36.6621 40.2763 36.6946 40.1044 37.0007 39.9771C37.7671 39.6575 38.1016 38.9912 38.2099 38.1815C38.6812 38.1815 39.1186 38.1747 39.556 38.1828C39.9582 38.1909 40.1572 37.9837 40.1667 37.6032C40.1816 37.0128 40.1748 36.421 40.1708 35.8293C40.1667 35.182 39.6887 35.2063 39.1917 35.2348C39.3664 34.0309 39.9433 33.1724 40.8912 32.5088C41.7308 31.9211 42.6015 31.3483 43.3246 30.632C44.997 28.9745 45.9084 26.927 46.0979 24.5694C46.1074 24.4556 46.1426 24.3446 46.1697 24.2173ZM44.8684 46.1765C45.9314 46.1765 46.9958 46.1765 48.0588 46.1765C49.0378 46.1765 50.0169 46.1778 50.996 46.1737C51.3318 46.1724 51.6392 46.0492 51.6419 45.6822C51.6433 45.3152 51.3386 45.1933 51.0014 45.1839C50.9337 45.1825 50.866 45.1825 50.7983 45.1825C46.8807 45.1825 42.9644 45.1811 39.0468 45.1852C38.8816 45.1852 38.6825 45.173 38.5593 45.257C38.4158 45.3531 38.2668 45.5441 38.2573 45.7025C38.2492 45.8325 38.4144 46.0248 38.5525 46.0979C38.7028 46.1778 38.91 46.1724 39.0928 46.1724C41.0185 46.1778 42.9427 46.1765 44.8684 46.1765ZM44.9198 48.1292C46.9619 48.1292 49.004 48.1251 51.0461 48.1332C51.3819 48.1346 51.646 48.0262 51.6433 47.6796C51.6405 47.3532 51.3995 47.1961 51.0569 47.1961C46.9727 47.2002 42.8886 47.1934 38.8058 47.2151C38.6202 47.2165 38.3155 47.4318 38.2736 47.5983C38.1666 48.0208 38.4686 48.1319 38.8464 48.1305C40.8695 48.1251 42.894 48.1292 44.9198 48.1292ZM46.4419 40.1802C47.1339 40.1802 47.8259 40.1802 48.5178 40.1802C49.3615 40.1802 50.2051 40.1843 51.0488 40.1748C51.3643 40.1707 51.6839 40.0258 51.6257 39.6968C51.5904 39.5004 51.2587 39.3501 51.0474 39.1984C50.9919 39.1578 50.8836 39.1917 50.7983 39.1917C47.8787 39.1917 44.9591 39.1917 42.0395 39.1917C41.9217 39.1917 41.766 39.151 41.6928 39.2106C41.5141 39.3528 41.2852 39.5275 41.2514 39.7184C41.2311 39.8376 41.51 40.0461 41.6901 40.1518C41.8052 40.2195 41.9867 40.1802 42.1384 40.1802C43.5724 40.1802 45.0078 40.1802 46.4419 40.1802ZM46.3972 42.1437C47.9328 42.1437 49.4685 42.1383 51.0041 42.1478C51.3535 42.1505 51.65 42.0584 51.6405 41.682C51.6324 41.3218 51.3467 41.2107 50.9933 41.2107C47.9559 41.2188 44.9171 41.2175 41.8797 41.2134C41.5452 41.2134 41.2405 41.2676 41.227 41.6671C41.2108 42.1153 41.5412 42.1478 41.8905 42.1465C43.3937 42.141 44.8954 42.1437 46.3972 42.1437ZM46.492 43.2311C44.9388 43.2311 43.3869 43.2339 41.8337 43.2284C41.5154 43.2271 41.2338 43.2853 41.2257 43.6631C41.2175 44.0545 41.4884 44.1628 41.8364 44.1615C44.8914 44.1587 47.945 44.1574 51 44.1642C51.3562 44.1655 51.6338 44.0382 51.6405 43.6821C51.6473 43.2988 51.3399 43.2244 50.996 43.2271C49.4955 43.2366 47.9938 43.2311 46.492 43.2311ZM47.6579 37.2444C46.5611 37.2444 45.4642 37.2457 44.3673 37.243C44.041 37.2417 43.7336 37.2674 43.739 37.7021C43.7458 38.1137 44.0315 38.1815 44.366 38.1815C46.5773 38.1801 48.7873 38.1774 50.9987 38.1842C51.3535 38.1855 51.6324 38.0515 51.6419 37.698C51.6514 37.3134 51.3426 37.2376 51 37.2417C49.8855 37.2511 48.7724 37.2444 47.6579 37.2444ZM47.6051 36.1597C48.7359 36.1597 49.8666 36.1529 50.9973 36.1637C51.3467 36.1678 51.6433 36.0744 51.6433 35.7006C51.6433 35.3336 51.3548 35.2267 51.0014 35.228C48.7914 35.2361 46.58 35.2348 44.37 35.2294C44.0328 35.228 43.743 35.2795 43.7403 35.6938C43.7376 36.1109 44.0288 36.1624 44.366 36.161C45.4452 36.1556 46.5259 36.1597 47.6051 36.1597Z" fill="#F37024"/>
<path d="M35.6629 49.2871C30.4183 49.2871 25.1587 49.2871 19.8652 49.2871C19.8652 40.944 19.8652 32.6105 19.8652 24.2363C21.9669 24.2363 24.0835 24.2363 26.2068 24.2363C26.3287 24.9039 26.4086 25.5891 26.5833 26.2486C27.282 28.8798 28.8163 30.9042 31.1522 32.2936C32.2139 32.9247 32.9235 33.771 33.1753 34.9857C33.1875 35.048 33.1767 35.1144 33.1767 35.201C33.0697 35.2119 32.9709 35.2376 32.8734 35.2308C32.4143 35.1942 32.2207 35.4366 32.2139 35.8605C32.2058 36.4171 32.2058 36.975 32.2139 37.5315C32.2207 37.9865 32.4482 38.2046 32.9167 38.1856C33.3365 38.168 33.7563 38.1815 34.1883 38.1815C34.3128 39.0699 34.7001 39.7266 35.5465 40.0557C35.6359 40.0909 35.7279 40.2561 35.7293 40.3604C35.7347 43.2976 35.7279 46.2348 35.7212 49.172C35.7212 49.2004 35.6927 49.2302 35.6629 49.2871ZM27.4878 45.1839C25.7667 45.1839 24.0455 45.1839 22.323 45.1839C22.0021 45.1839 21.6812 45.1758 21.3616 45.188C21.0488 45.2002 20.7671 45.3193 20.7576 45.6687C20.7468 46.0208 21.0244 46.1427 21.3372 46.1738C21.4212 46.182 21.5065 46.1765 21.5904 46.1765C25.5053 46.1765 29.4216 46.1765 33.3365 46.1765C33.4543 46.1765 33.6087 46.2158 33.6832 46.1576C33.8592 46.0195 34.1205 45.8299 34.1165 45.6687C34.1111 45.5049 33.8443 45.3248 33.6588 45.2015C33.564 45.1392 33.3961 45.1839 33.2607 45.1839C31.3364 45.1839 29.4121 45.1839 27.4878 45.1839ZM27.4323 48.1292C27.9049 48.1292 28.3775 48.1292 28.8488 48.1292C30.4183 48.1292 31.9864 48.132 33.5559 48.1265C34.0528 48.1252 34.3399 47.7704 34.0853 47.4508C33.9594 47.2924 33.6547 47.2084 33.4299 47.2084C29.4487 47.1949 25.4674 47.2003 21.4862 47.1949C21.1151 47.1949 20.7617 47.2463 20.7603 47.6864C20.759 48.1184 21.1192 48.1333 21.4604 48.132C23.4511 48.1265 25.4417 48.1292 27.4323 48.1292ZM25.9752 39.1917C24.5073 39.1917 23.0394 39.1945 21.5715 39.1904C21.195 39.189 20.7807 39.2188 20.7671 39.6711C20.7509 40.1857 21.2045 40.1762 21.5837 40.1816C21.5999 40.1816 21.6175 40.1816 21.6338 40.1816C24.5195 40.1816 27.4052 40.1816 30.291 40.1803C30.4589 40.1803 30.6498 40.2033 30.7866 40.1315C30.945 40.0476 31.1644 39.8661 31.159 39.7361C31.1509 39.5641 30.9789 39.361 30.8204 39.25C30.7026 39.166 30.4968 39.1945 30.3302 39.1945C28.8772 39.189 27.4269 39.1917 25.9752 39.1917ZM25.9725 42.1438C27.4743 42.1438 28.9774 42.1411 30.4792 42.1465C30.8218 42.1479 31.1712 42.1357 31.1752 41.6956C31.1779 41.2731 30.8529 41.2135 30.4968 41.2135C27.4757 41.2189 24.4545 41.2189 21.4334 41.2135C21.0718 41.2122 20.7549 41.2893 20.7603 41.7037C20.7658 42.0964 21.0786 42.1506 21.4158 42.1479C22.9338 42.1398 24.4532 42.1438 25.9725 42.1438ZM25.9116 44.1615C27.4648 44.1615 29.0167 44.1588 30.5699 44.1642C30.899 44.1656 31.1536 44.0518 31.1752 43.7052C31.1942 43.3802 30.9843 43.2312 30.6579 43.2312C27.5352 43.2339 24.4125 43.2339 21.2912 43.2299C20.9648 43.2299 20.7129 43.3883 20.7752 43.6876C20.8145 43.8745 21.1111 44.0193 21.3101 44.1548C21.3792 44.2022 21.5078 44.1629 21.6094 44.1629C23.0421 44.1615 24.4775 44.1615 25.9116 44.1615ZM24.7308 36.1598C25.8276 36.1598 26.9259 36.1571 28.0227 36.1611C28.3532 36.1625 28.6538 36.13 28.6592 35.7061C28.6646 35.2904 28.3816 35.2295 28.0417 35.2295C25.8303 35.2335 23.619 35.2349 21.4076 35.2281C21.0623 35.2267 20.7658 35.3066 20.7576 35.6885C20.7495 36.0745 21.0393 36.1652 21.3887 36.1625C22.5032 36.1543 23.6176 36.1598 24.7308 36.1598ZM24.6928 37.2445C23.596 37.2445 22.4991 37.2499 21.4022 37.2417C21.065 37.239 20.7522 37.3 20.759 37.6967C20.7658 38.0597 21.0461 38.1856 21.3954 38.1842C23.6068 38.1802 25.8168 38.1815 28.0282 38.1829C28.3599 38.1829 28.6524 38.1206 28.6592 37.7076C28.6673 37.277 28.3626 37.2431 28.0336 37.2445C26.9204 37.2458 25.8073 37.2445 24.6928 37.2445Z" fill="#F37024"/>
<path d="M45.1709 24.4975C45.0368 25.8896 44.6319 27.1354 43.9521 28.2919C43.1477 29.6596 42.0563 30.7429 40.6818 31.5324C39.2721 32.3422 38.4515 33.542 38.2294 35.1927C37.7378 35.1927 37.2409 35.1927 36.7046 35.1927C36.7046 32.7606 36.7046 30.3231 36.7046 27.887C38.3648 28.3812 39.3439 28.1009 39.9207 26.9675C40.4069 26.0128 40.1347 24.8645 39.287 24.2023C38.5788 23.6484 37.2341 23.4683 36.1981 24.5665C35.6592 23.9815 34.9848 23.6403 34.1913 23.7974C33.7498 23.8854 33.284 24.0885 32.94 24.3729C32.1641 25.0121 32.0246 26.2254 32.5365 27.0907C33.158 28.1402 34.1994 28.4029 35.7093 27.8721C35.7093 30.3041 35.7093 32.7254 35.7093 35.19C35.2177 35.19 34.7221 35.19 34.305 35.19C34.0003 34.4682 33.8135 33.6869 33.3788 33.0856C32.9292 32.464 32.2981 31.921 31.6427 31.5094C29.1456 29.9372 27.6967 27.7136 27.2498 24.8144C27.2376 24.7318 27.2485 24.6464 27.2485 24.4975C27.7414 24.4975 28.2262 24.4853 28.7096 24.5015C29.1727 24.5164 29.361 24.3309 29.3907 23.8502C29.5952 20.5839 31.6549 18.1288 34.7993 17.3664C38.3079 16.516 42.1348 18.9698 42.8349 22.5285C42.9256 22.9889 42.9825 23.4602 43.0137 23.9287C43.0407 24.3336 43.2276 24.5043 43.6203 24.4988C44.1214 24.4921 44.6251 24.4975 45.1709 24.4975Z" fill="#F37024"/>
<path d="M52.7501 50.2808C52.7501 51.2856 52.7501 52.2578 52.7501 53.2545C41.7787 53.2545 30.8316 53.2545 19.8574 53.2545C19.8574 52.2606 19.8574 51.2883 19.8574 50.2808C30.8099 50.2808 41.757 50.2808 52.7501 50.2808Z" fill="#F37024"/>
<path d="M28.4117 23.5348C28.0163 23.5348 27.6506 23.5348 27.201 23.5348C27.3487 20.3931 28.6825 17.9218 31.2703 16.2386C34.4783 14.1518 37.8218 14.1396 41.0582 16.1736C43.7165 17.8446 45.0422 20.3539 45.202 23.5321C44.7551 23.5321 44.3895 23.5321 43.9616 23.5321C43.6907 20.9267 42.518 18.8399 40.2769 17.4194C38.8022 16.485 37.1691 16.1329 35.4479 16.2914C32.2968 16.5825 28.8586 19.0552 28.4117 23.5348Z" fill="#F37024"/>
<path d="M33.2419 36.1841C35.2326 36.1841 37.1853 36.1841 39.1651 36.1841C39.1651 36.5348 39.1651 36.8625 39.1651 37.216C37.1866 37.216 35.2353 37.216 33.2419 37.216C33.2419 36.8801 33.2419 36.5538 33.2419 36.1841Z" fill="#F37024"/>
<path d="M33.209 25.9845C33.2036 25.2546 33.752 24.6953 34.4643 24.7007C35.1401 24.7061 35.7224 25.2776 35.7345 25.9493C35.7481 26.6345 35.1495 27.2303 34.4467 27.2276C33.748 27.2276 33.2131 26.69 33.209 25.9845Z" fill="#F37024"/>
<path d="M39.1909 25.9779C39.1882 26.6821 38.6533 27.2251 37.9559 27.2291C37.2503 27.2332 36.6586 26.6496 36.6653 25.9576C36.6721 25.2832 37.2463 24.7117 37.9247 24.7023C38.637 24.6928 39.1936 25.2548 39.1909 25.9779Z" fill="#F37024"/>
<path d="M35.2012 38.1963C35.881 38.1963 36.5188 38.1963 37.1579 38.1963C37.1512 38.7732 36.8275 39.151 36.3184 39.1889C35.6819 39.239 35.3149 38.9248 35.2012 38.1963Z" fill="#F37024"/>
</svg>
