<svg width="72" height="72" viewBox="0 0 72 72" fill="none" xmlns="http://www.w3.org/2000/svg">
<rect width="72" height="72" rx="36" fill="white"/>
<path d="M43.5605 47.7222C43.0189 50.7119 42.3255 53.6583 41.3506 56.5181C41.3073 56.6912 41.3077 56.8215 41.2861 56.9946C39.5961 57.4063 37.819 57.6665 35.999 57.6665C34.1574 57.6665 32.4021 57.4063 30.6904 56.9946C30.6689 56.8216 30.6908 56.6912 30.6475 56.5181C29.6942 53.6366 28.9791 50.7119 28.4375 47.7222C30.9508 48.0038 33.4641 48.1987 35.999 48.1987C38.5339 48.1987 41.069 48.0038 43.5605 47.7222ZM55.3262 45.4038C55.3047 45.4904 55.3701 45.5772 55.3701 45.6421C53.2251 49.9537 49.6498 53.4418 45.2949 55.5435C46.1182 52.7918 46.8116 50.0181 47.2666 47.2231C49.9964 46.7682 52.683 46.1837 55.3262 45.4038ZM16.6719 45.4038C19.3152 46.1838 22.0456 46.7681 24.7539 47.2231C25.2306 49.9531 25.7942 52.6618 26.5742 55.3052C26.5093 55.3052 26.4224 55.348 26.3574 55.3481C22.1542 53.2682 18.7306 49.8238 16.6289 45.6206C16.6289 45.5557 16.6718 45.4688 16.6719 45.4038ZM27.8457 27.8462C33.2647 27.1625 38.7344 27.1625 44.1533 27.8462C44.837 33.2652 44.837 38.7348 44.1533 44.1538C38.7343 44.8375 33.2647 44.8375 27.8457 44.1538C27.162 38.7348 27.162 33.2652 27.8457 27.8462ZM24.2783 28.439C23.7367 33.4655 23.7367 38.5355 24.2783 43.562C21.2884 43.0204 18.3414 42.327 15.4814 41.3521C15.3082 41.3087 15.1781 41.3297 15.0049 41.3081C14.5933 39.5966 14.333 37.8419 14.333 36.0005C14.333 34.1805 14.5932 32.4034 15.0049 30.7134C15.1781 30.6917 15.3082 30.6922 15.4814 30.6489C18.3631 29.6956 21.2883 28.9806 24.2783 28.439ZM47.7217 28.439C50.69 28.9806 53.6586 29.6739 56.5186 30.6489C56.6917 30.6922 56.8219 30.7134 56.9951 30.7134C57.4068 32.425 57.667 34.1805 57.667 36.0005C57.667 37.8419 57.4067 39.5967 56.9951 41.3081C56.8218 41.3298 56.6918 41.3088 56.5186 41.3521C53.6369 42.3054 50.69 43.0203 47.7217 43.562C48.285 38.5355 48.285 33.4655 47.7217 28.439ZM26.3584 16.6304C26.4233 16.6304 26.5102 16.6947 26.5752 16.6948C25.7952 19.3382 25.2323 22.0254 24.7773 24.7554C21.9823 25.1887 19.2087 25.8822 16.457 26.7056C18.5586 22.3507 22.0469 18.7754 26.3584 16.6304ZM45.2949 16.4565C49.7799 18.6015 53.398 22.2206 55.543 26.7056C52.813 25.8823 50.0615 25.2106 47.2666 24.7339C46.8116 21.9389 46.1399 19.1649 45.2949 16.4565ZM35.999 14.3335C37.819 14.3335 39.5961 14.5937 41.2861 15.0054C41.3078 15.1786 41.3073 15.3087 41.3506 15.4819C42.3256 18.3636 43.0189 21.3105 43.5605 24.2788C38.534 23.7155 33.4641 23.7155 28.4375 24.2788C28.9792 21.3105 29.6725 18.3419 30.6475 15.4819C30.6908 15.3087 30.6688 15.1786 30.6904 15.0054C32.4021 14.5937 34.1574 14.3335 35.999 14.3335Z" fill="#F37024"/>
</svg>
