<svg width="72" height="72" viewBox="0 0 72 72" fill="none" xmlns="http://www.w3.org/2000/svg">
<rect width="72" height="72" rx="36" fill="white"/>
<path d="M35.5088 12.9053C35.2164 12.9053 35.0171 13.0976 35.0171 13.29C35.0171 13.3895 35.0171 13.4824 35.1168 13.5819C35.2164 13.6814 35.3161 13.6814 35.5088 13.7743V12.9053Z" fill="#F37024"/>
<path d="M36.2996 15.327C36.2996 15.2275 36.2996 15.1346 36.1999 15.0351C36.1002 14.9356 36.0006 14.9356 35.8079 14.8428V15.6189C36.1999 15.7118 36.2996 15.5194 36.2996 15.327Z" fill="#F37024"/>
<path d="M61.1163 40.0166C59.9402 38.8557 58.0731 38.8557 56.897 40.0166L45.4219 51.2537C45.2226 51.6385 45.0299 52.0299 44.6379 52.4146C43.8538 53.2836 42.7708 53.675 41.5947 53.675L28.7375 53.0912C28.4452 53.0912 28.1462 52.7993 28.1462 52.4146C28.1462 52.1227 28.4385 51.8308 28.8306 51.8308L41.6811 52.4146C42.4651 52.4146 43.2492 52.1227 43.7409 51.5456C43.9402 51.3532 44.0332 51.1609 44.1329 50.9619C44.1329 50.7695 44.2326 50.67 44.3322 50.5771C44.4319 50.1924 44.5316 49.801 44.4319 49.4163C44.3322 48.2554 43.3488 47.1874 42.0731 47.0945L36.3854 46.5108V40.408H40.6047C43.4485 40.408 45.8073 38.2786 46.0997 35.5655H41.8804C39.2292 35.5655 36.9767 37.5025 36.4851 40.0166V28.2023H40.7043C43.5482 28.2023 45.907 26.073 46.1993 23.3599H41.9801C39.3289 23.3599 37.0764 25.2968 36.5847 27.8109V18.4245C38.6445 18.1327 40.2126 16.3947 40.2126 14.2587C40.2126 11.937 38.2525 10 35.8937 10C33.5415 10 31.5748 11.937 31.5748 14.2587C31.5748 16.3881 33.2425 18.2255 35.3023 18.4245V35.5655C34.6179 33.4362 32.4585 31.791 30.0997 31.791H25.8804C26.1728 34.5041 28.5316 36.6335 31.3754 36.6335H35.3954V46.2189L19.3023 44.4743L10 53.476L18.6312 62L21.3754 60.1625L16.2724 55.1277C16.0731 54.9353 16.0731 54.5439 16.2724 54.2587C16.4718 54.0663 16.8638 54.0663 17.1561 54.2587L22.6512 59.6849L44.6312 60.461L61.1163 44.1957C61.7076 43.6119 62 42.9353 62 42.0663C62 41.1774 61.608 40.6003 61.1163 40.0166ZM34.5316 16.4876C34.2392 16.3881 33.9402 16.2952 33.7475 16.1028L34.2392 15.1343L34.3389 15.2338C34.4385 15.3333 34.5382 15.3333 34.6312 15.4262C34.7309 15.5257 34.9236 15.5257 35.0233 15.6186C35.2226 15.7181 35.3156 15.7181 35.515 15.7181V14.8425L35.2226 14.743C35.0233 14.6434 34.8306 14.6434 34.6312 14.5506C34.4319 14.4511 34.3389 14.3582 34.2392 14.2587C34.1395 14.1592 34.0399 14.0663 34.0399 13.874C33.9402 13.7745 33.9402 13.5821 33.9402 13.3897C33.9402 13.1973 33.9402 13.005 34.0399 12.806C34.1395 12.6136 34.2392 12.5141 34.3322 12.3217C34.4319 12.2222 34.6246 12.1294 34.8239 12.0299C35.0233 11.9303 35.2159 11.9303 35.4153 11.9303V11.2604H35.907V11.937C36.1993 11.937 36.4983 12.0365 36.691 12.1294C36.9834 12.2289 37.1827 12.3217 37.3754 12.4212L36.8837 13.2902C36.8837 13.2902 36.7841 13.2902 36.7841 13.1907C36.6844 13.1907 36.6844 13.0912 36.4917 13.0912C36.2924 13.0912 36.2924 12.9917 36.1993 12.9917C36.0997 12.9917 36 12.8922 35.8073 12.8922V13.7612L36.0066 13.8607C36.206 13.9602 36.3987 13.9602 36.598 14.0531C36.7973 14.1526 36.8904 14.2454 37.0897 14.3449C37.1894 14.4444 37.289 14.5373 37.3821 14.7297C37.4817 14.9221 37.4817 15.0216 37.4817 15.2139C37.4817 15.5058 37.4817 15.6982 37.3821 15.8905C37.2824 16.0829 37.1827 16.1824 36.99 16.2753C36.7907 16.3748 36.6977 16.4677 36.4983 16.5672C36.299 16.6667 36.1063 16.6667 35.907 16.6667V17.4428H35.4153V16.6667C35.1163 16.5871 34.8239 16.5871 34.5316 16.4876Z" fill="#F37024"/>
<path d="M18.339 21.0381C19.0433 21.0381 19.6147 21.6019 19.6147 22.2985C19.6147 22.995 19.0433 23.5588 18.339 23.5588C17.6347 23.5588 17.0632 22.995 17.0632 22.2985C17.0632 21.6019 17.6347 21.0381 18.339 21.0381Z" fill="#F37024"/>
<path d="M27.4676 23.9438C28.172 23.9438 28.7434 24.5077 28.7434 25.2042C28.7434 25.9007 28.172 26.4646 27.4676 26.4646C26.7633 26.4646 26.1919 25.9007 26.1919 25.2042C26.1919 24.5077 26.7633 23.9438 27.4676 23.9438Z" fill="#F37024"/>
<path d="M51.9943 14.2588C52.6986 14.2588 53.27 14.8226 53.27 15.5192C53.27 16.2157 52.6986 16.7795 51.9943 16.7795C51.2899 16.7795 50.7185 16.2157 50.7185 15.5192C50.7185 14.8226 51.2899 14.2588 51.9943 14.2588Z" fill="#F37024"/>
<path d="M56.9037 27.6255C57.608 27.6255 58.1794 28.1893 58.1794 28.8859C58.1794 29.5824 57.608 30.1462 56.9037 30.1462C56.1994 30.1462 55.6279 29.5824 55.6279 28.8859C55.6279 28.1893 56.1927 27.6255 56.9037 27.6255Z" fill="#F37024"/>
<path d="M48.3651 30.0464C49.0694 30.0464 49.6409 30.6102 49.6409 31.3068C49.6409 32.0033 49.0694 32.5671 48.3651 32.5671C47.6608 32.5671 47.0894 32.0033 47.0894 31.3068C47.0894 30.6102 47.6608 30.0464 48.3651 30.0464Z" fill="#F37024"/>
</svg>
