<svg width="72" height="72" viewBox="0 0 72 72" fill="none" xmlns="http://www.w3.org/2000/svg">
<rect width="72" height="72" rx="36" fill="white"/>
<path d="M49.5745 54.533C49.0464 55.9928 48.5277 57.4309 48.0077 58.869C47.7789 59.5028 47.5324 60.1311 47.3225 60.7703C47.1221 61.381 46.7863 61.8252 46.1051 61.8915C45.3969 61.9606 44.9974 61.5489 44.6711 60.9788C42.8416 57.7884 40.9986 54.6075 39.1596 51.4225C39.0756 51.2776 38.9863 51.1354 38.8766 50.9526C36.9483 51.8585 35.0132 51.8883 33.0307 50.9472C32.9399 51.0921 32.8424 51.241 32.753 51.394C30.8965 54.6075 29.0399 57.8209 27.1888 61.0384C26.9328 61.4839 26.6173 61.836 26.0743 61.8915C25.3701 61.9633 24.8826 61.6221 24.6023 60.8488C23.89 58.8853 23.1831 56.9204 22.4722 54.9555C22.4275 54.8296 22.3774 54.7063 22.3111 54.5289C21.1329 54.7388 19.9589 54.9474 18.7862 55.1559C17.757 55.3387 16.7278 55.5202 15.7014 55.7084C15.0879 55.8208 14.5517 55.7192 14.1807 55.1735C13.811 54.6291 13.9247 54.1024 14.2375 53.5621C16.3703 49.8855 18.4923 46.2022 20.6184 42.5202C20.9501 41.9447 20.9393 41.8431 20.3963 41.4517C20.181 41.296 19.9304 41.1795 19.6826 41.0793C16.2715 39.7049 14.8455 35.381 16.8037 32.2745C17.3941 31.3388 17.3873 30.4667 16.7996 29.5351C14.8564 26.4516 16.2647 22.1088 19.6474 20.7641C20.6969 20.347 21.2223 19.628 21.2589 18.5027C21.3428 15.9799 23.6246 13.5044 26.2571 13.0373C27.1021 12.8869 27.9336 12.8924 28.7623 13.1293C29.8023 13.4259 30.6338 13.1266 31.3203 12.2884C33.636 9.46361 38.2618 9.46903 40.5788 12.2965C41.2491 13.1158 42.0697 13.4367 43.0894 13.1348C46.2866 12.1895 50.085 14.6216 50.5901 18.0612C50.6199 18.2603 50.6267 18.4634 50.6402 18.6665C50.7012 19.6104 51.1331 20.3091 52.0242 20.6639C54.5484 21.6674 55.7522 23.6147 55.9662 26.2309C56.0596 27.3819 55.7928 28.4897 55.1401 29.4592C54.4739 30.4478 54.5118 31.3686 55.1442 32.3734C57.0305 35.3742 55.5829 39.7103 52.2883 41.0374C52.1948 41.0753 52.1 41.1105 52.0079 41.1511C51.0153 41.5844 50.9138 41.8797 51.4392 42.791C53.488 46.3416 55.5383 49.8909 57.583 53.4442C57.7171 53.6758 57.862 53.9196 57.9175 54.1755C58.1125 55.0638 57.3596 55.8723 56.4293 55.7233C54.566 55.4254 52.7108 55.0733 50.8515 54.7442C50.4398 54.6752 50.0254 54.6088 49.5745 54.533ZM17.5701 35.1806C17.562 37.2782 18.6332 38.8653 20.4288 39.6114C21.9387 40.2384 22.7647 41.38 22.873 43.0266C23.0559 45.8 25.7452 47.7703 28.4238 47.0932C30.0623 46.6788 31.4124 47.1365 32.512 48.404C32.7219 48.6451 32.9386 48.8875 33.185 49.0865C34.8872 50.4637 37.9612 50.2674 39.3898 48.4189C40.4 47.1108 41.7894 46.6734 43.4103 47.0824C46.1309 47.7703 48.8256 45.8311 49.0166 43.0348C49.1317 41.3448 49.9889 40.2059 51.5489 39.5789C54.0866 38.5592 55.113 35.3878 53.656 33.0694C52.7473 31.6245 52.7649 30.1864 53.66 28.7348C53.8875 28.3664 54.0879 27.9602 54.1922 27.5444C54.7488 25.3263 53.465 22.9145 51.4879 22.2104C49.9929 21.6782 49.0897 20.5258 49.0423 18.9225C48.957 16.0042 45.8451 13.996 43.39 14.734C41.8084 15.2093 40.4258 14.692 39.3681 13.4015C37.6456 11.2985 34.2521 11.2931 32.5296 13.3934C31.4571 14.7015 30.061 15.2093 28.4603 14.7273C26.0892 14.0136 22.9773 15.9555 22.8622 18.8101C22.7945 20.4811 21.9035 21.6213 20.3692 22.2402C17.822 23.268 16.763 26.4273 18.2174 28.7293C19.141 30.1905 19.1423 31.6503 18.2093 33.1033C17.78 33.7777 17.5512 34.5022 17.5701 35.1806Z" fill="#F37024"/>
<path d="M35.9432 45.2302C43.8596 45.2302 50.2771 38.8127 50.2771 30.8964C50.2771 22.98 43.8596 16.5625 35.9432 16.5625C28.0269 16.5625 21.6094 22.98 21.6094 30.8964C21.6094 38.8127 28.0269 45.2302 35.9432 45.2302Z" fill="#F37024"/>
</svg>
